<svg xmlns="http://www.w3.org/2000/svg" xmlns:xlink="http://www.w3.org/1999/xlink" width="500" zoomAndPan="magnify" viewBox="0 0 375 374.999991" height="500" preserveAspectRatio="xMidYMid meet" version="1.0"><defs><g/><clipPath id="4750b581de"><path d="M 218.171875 205.214844 L 318.707031 205.214844 L 318.707031 264.792969 L 218.171875 264.792969 Z M 218.171875 205.214844 " clip-rule="nonzero"/></clipPath><clipPath id="8898961db5"><path d="M 268.414062 205.214844 C 240.664062 205.214844 218.171875 218.550781 218.171875 235.003906 C 218.171875 251.457031 240.664062 264.792969 268.414062 264.792969 C 296.164062 264.792969 318.660156 251.457031 318.660156 235.003906 C 318.660156 218.550781 296.164062 205.214844 268.414062 205.214844 Z M 268.414062 205.214844 " clip-rule="nonzero"/></clipPath><clipPath id="ae6a18e66f"><path d="M 225.023438 195.902344 L 325.5625 195.902344 L 325.5625 255.480469 L 225.023438 255.480469 Z M 225.023438 195.902344 " clip-rule="nonzero"/></clipPath><clipPath id="c8d845ce6b"><path d="M 275.269531 195.902344 C 247.519531 195.902344 225.023438 209.238281 225.023438 225.691406 C 225.023438 242.144531 247.519531 255.480469 275.269531 255.480469 C 303.015625 255.480469 325.511719 242.144531 325.511719 225.691406 C 325.511719 209.238281 303.015625 195.902344 275.269531 195.902344 Z M 275.269531 195.902344 " clip-rule="nonzero"/></clipPath><clipPath id="e666146bd3"><path d="M 70.132812 166.234375 L 227.617188 166.234375 L 227.617188 228.070312 L 70.132812 228.070312 Z M 70.132812 166.234375 " clip-rule="nonzero"/></clipPath><clipPath id="393796fd02"><path d="M 148.792969 166.234375 C 105.351562 166.234375 70.132812 180.078125 70.132812 197.152344 C 70.132812 214.226562 105.351562 228.070312 148.792969 228.070312 C 192.238281 228.070312 227.453125 214.226562 227.453125 197.152344 C 227.453125 180.078125 192.238281 166.234375 148.792969 166.234375 Z M 148.792969 166.234375 " clip-rule="nonzero"/></clipPath><clipPath id="6c068534ee"><path d="M 77.25 220.894531 L 325.511719 220.894531 L 325.511719 272.441406 L 77.25 272.441406 Z M 77.25 220.894531 " clip-rule="nonzero"/></clipPath><clipPath id="6b6e0f3254"><path d="M 132.613281 167.914062 L 312.484375 167.914062 L 312.484375 219.457031 L 132.613281 219.457031 Z M 132.613281 167.914062 " clip-rule="nonzero"/></clipPath><clipPath id="a06fa8564c"><path d="M 5.71875 154 L 123 154 L 123 272.972656 L 5.71875 272.972656 Z M 5.71875 154 " clip-rule="nonzero"/></clipPath><clipPath id="02d3aed9c7"><path d="M 5.71875 154 L 129.847656 154 L 129.847656 272.972656 L 5.71875 272.972656 Z M 5.71875 154 " clip-rule="nonzero"/></clipPath></defs><g clip-path="url(#4750b581de)"><g clip-path="url(#8898961db5)"><path fill="#000000" d="M 218.171875 205.214844 L 318.707031 205.214844 L 318.707031 264.792969 L 218.171875 264.792969 Z M 218.171875 205.214844 " fill-opacity="1" fill-rule="nonzero"/></g></g><g clip-path="url(#ae6a18e66f)"><g clip-path="url(#c8d845ce6b)"><path fill="#000000" d="M 225.023438 195.902344 L 325.5625 195.902344 L 325.5625 255.480469 L 225.023438 255.480469 Z M 225.023438 195.902344 " fill-opacity="1" fill-rule="nonzero"/></g></g><g clip-path="url(#e666146bd3)"><g clip-path="url(#393796fd02)"><path fill="#000000" d="M 70.132812 166.234375 L 227.375 166.234375 L 227.375 228.070312 L 70.132812 228.070312 Z M 70.132812 166.234375 " fill-opacity="1" fill-rule="nonzero"/></g></g><g clip-path="url(#6c068534ee)"><path fill="#000000" d="M 77.25 220.894531 L 325.507812 220.894531 L 325.507812 272.441406 L 77.25 272.441406 Z M 77.25 220.894531 " fill-opacity="1" fill-rule="nonzero"/></g><g clip-path="url(#6b6e0f3254)"><path fill="#000000" d="M 132.613281 167.914062 L 312.414062 167.914062 L 312.414062 219.457031 L 132.613281 219.457031 Z M 132.613281 167.914062 " fill-opacity="1" fill-rule="nonzero"/></g><g fill="#762f82" fill-opacity="1"><g transform="translate(138.403629, 219.00759)"><g><path d="M 28.265625 -23.625 L 52.4375 -23.625 L 52.4375 0 L 26.671875 0 C 21.222656 0 16.546875 -1.109375 12.640625 -3.328125 C 8.734375 -5.546875 5.738281 -8.535156 3.65625 -12.296875 C 1.582031 -16.054688 0.546875 -20.289062 0.546875 -25 C 0.546875 -28.46875 1.238281 -31.703125 2.625 -34.703125 C 4.007812 -37.703125 5.898438 -40.34375 8.296875 -42.625 C 10.703125 -44.914062 13.472656 -46.695312 16.609375 -47.96875 C 19.753906 -49.238281 23.0625 -49.875 26.53125 -49.875 C 30.082031 -49.875 33.414062 -49.269531 36.53125 -48.0625 C 39.65625 -46.863281 42.40625 -45.144531 44.78125 -42.90625 C 47.15625 -40.664062 49.023438 -38.019531 50.390625 -34.96875 C 51.753906 -31.925781 52.4375 -28.554688 52.4375 -24.859375 L 33.390625 -24.859375 C 33.242188 -26.617188 32.515625 -28.078125 31.203125 -29.234375 C 29.890625 -30.390625 28.332031 -30.96875 26.53125 -30.96875 C 24.632812 -30.96875 23.015625 -30.285156 21.671875 -28.921875 C 20.335938 -27.554688 19.671875 -25.925781 19.671875 -24.03125 C 19.671875 -22.132812 20.335938 -20.515625 21.671875 -19.171875 C 23.015625 -17.835938 24.632812 -17.171875 26.53125 -17.171875 L 33.390625 -17.171875 L 33.390625 -22.375 L 28.265625 -22.375 Z M 28.265625 -23.625 "/></g></g></g><g fill="#762f82" fill-opacity="1"><g transform="translate(192.839666, 219.00759)"><g><path d="M 18.703125 -32.421875 L 18.703125 -31.171875 L 41.765625 -31.171875 L 41.765625 -17.3125 L 18.703125 -17.3125 L 18.703125 -16.0625 L 41.765625 -16.0625 L 41.765625 0 L 0.6875 0 L 0.6875 -48.484375 L 41.765625 -48.484375 L 41.765625 -32.421875 Z M 18.703125 -32.421875 "/></g></g></g><g fill="#762f82" fill-opacity="1"><g transform="translate(236.610153, 219.00759)"><g><path d="M 18.703125 -32.421875 L 18.703125 -31.171875 L 41.765625 -31.171875 L 41.765625 -17.3125 L 18.703125 -17.3125 L 18.703125 -16.0625 L 41.765625 -16.0625 L 41.765625 0 L 0.6875 0 L 0.6875 -48.484375 L 41.765625 -48.484375 L 41.765625 -32.421875 Z M 18.703125 -32.421875 "/></g></g></g><g fill="#762f82" fill-opacity="1"><g transform="translate(280.380634, 219.00759)"><g><path d="M 52.84375 0 L 31.234375 0 L 18.765625 -19.125 L 18.765625 0 L 0.765625 0 L 0.765625 -48.484375 L 18.765625 -48.484375 L 18.765625 -30.0625 L 29.640625 -48.484375 L 51.1875 -48.484375 L 36.015625 -24.25 Z M 52.84375 0 "/></g></g></g><path stroke-linecap="butt" transform="matrix(1.347247, 0, 0, 1.347247, 104.57509, 174.548427)" fill="none" stroke-linejoin="miter" d="M 46.0829 15.467309 L 64.030375 15.467309 L 64.030375 33.000165 L 44.902832 33.000165 C 40.861026 33.000165 37.387509 32.179626 34.485179 30.538548 C 31.588648 28.891672 29.373483 26.670708 27.833885 23.875657 C 26.294288 21.080607 25.523039 17.934725 25.523039 14.438011 C 25.523039 11.869116 26.039138 9.471287 27.068436 7.244525 C 28.097734 5.017762 29.501058 3.057747 31.284208 1.358681 C 33.067357 -0.340385 35.120154 -1.659626 37.448397 -2.596142 C 39.782438 -3.541356 42.232457 -4.013964 44.801352 -4.013964 C 47.436934 -4.013964 49.910149 -3.567451 52.220995 -2.671527 C 54.537639 -1.784302 56.578838 -0.508552 58.344592 1.15862 C 60.110345 2.814195 61.499172 4.777109 62.511073 7.044464 C 63.525874 9.30312 64.030375 11.805329 64.030375 14.54819 L 49.886953 14.54819 C 49.785473 13.243446 49.246179 12.164858 48.266171 11.312425 C 47.294862 10.448395 46.140889 10.01928 44.801352 10.01928 C 43.395128 10.01928 42.194764 10.52378 41.20026 11.538581 C 40.205755 12.550482 39.707053 13.759545 39.707053 15.165769 C 39.707053 16.569093 40.205755 17.772356 41.20026 18.766861 C 42.194764 19.755567 43.395128 20.24847 44.801352 20.24847 L 49.886953 20.24847 L 49.886953 16.395127 L 46.0829 16.395127 Z M 79.397356 8.937792 L 79.397356 9.868509 L 96.515593 9.868509 L 96.515593 20.14699 L 79.397356 20.14699 L 79.397356 21.077707 L 96.515593 21.077707 L 96.515593 33.000165 L 66.028082 33.000165 L 66.028082 -2.984666 L 96.515593 -2.984666 L 96.515593 8.937792 Z M 111.885473 8.937792 L 111.885473 9.868509 L 129.00661 9.868509 L 129.00661 20.14699 L 111.885473 20.14699 L 111.885473 21.077707 L 129.00661 21.077707 L 129.00661 33.000165 L 98.519099 33.000165 L 98.519099 -2.984666 L 129.00661 -2.984666 L 129.00661 8.937792 Z M 169.714613 33.000165 L 153.674964 33.000165 L 144.422881 18.816151 L 144.422881 33.000165 L 131.056507 33.000165 L 131.056507 -2.984666 L 144.422881 -2.984666 L 144.422881 10.683249 L 152.494896 -2.984666 L 168.485254 -2.984666 L 157.226766 15.000501 Z M 169.714613 33.000165 " stroke="#000000" stroke-width="3.534706" stroke-opacity="1" stroke-miterlimit="4"/><g fill="#762f82" fill-opacity="1"><g transform="translate(112.25861, 270.202991)"><g><path d="M 19.328125 -48.484375 L 32.28125 -14.46875 L 33.3125 -14.46875 L 30.546875 -22.09375 L 40.375 -48.484375 L 59.984375 -48.484375 L 41.140625 0 L 18.765625 0 L -0.140625 -48.484375 Z M 19.328125 -48.484375 "/></g></g></g><g fill="#762f82" fill-opacity="1"><g transform="translate(173.274052, 270.202991)"><g><path d="M 18.703125 -32.421875 L 18.703125 -31.171875 L 41.765625 -31.171875 L 41.765625 -17.3125 L 18.703125 -17.3125 L 18.703125 -16.0625 L 41.765625 -16.0625 L 41.765625 0 L 0.6875 0 L 0.6875 -48.484375 L 41.765625 -48.484375 L 41.765625 -32.421875 Z M 18.703125 -32.421875 "/></g></g></g><g fill="#762f82" fill-opacity="1"><g transform="translate(217.044539, 270.202991)"><g><path d="M 0.765625 0 L 0.765625 -48.484375 L 20.640625 -48.484375 C 25.484375 -48.484375 29.535156 -47.984375 32.796875 -46.984375 C 36.054688 -45.992188 38.65625 -44.625 40.59375 -42.875 C 42.53125 -41.125 43.914062 -39.101562 44.75 -36.8125 C 45.582031 -34.53125 45.972656 -32.117188 45.921875 -29.578125 C 45.921875 -27.910156 45.644531 -26.257812 45.09375 -24.625 C 44.539062 -22.988281 43.695312 -21.535156 42.5625 -20.265625 C 41.425781 -18.992188 39.960938 -18.054688 38.171875 -17.453125 L 47.65625 0 L 28.8125 0 L 20.015625 -18.359375 L 20.015625 -25 L 24.03125 -25 C 25.375 -25 26.351562 -25.359375 26.96875 -26.078125 C 27.59375 -26.796875 27.90625 -27.570312 27.90625 -28.40625 C 27.90625 -29.28125 27.59375 -30.0625 26.96875 -30.75 C 26.351562 -31.445312 25.375 -31.796875 24.03125 -31.796875 L 18.765625 -31.796875 L 18.765625 0 Z M 0.765625 0 "/></g></g></g><g fill="#762f82" fill-opacity="1"><g transform="translate(265.039682, 270.202991)"><g><path d="M 0.765625 0 L 0.765625 -18.21875 L 10.875 -18.21875 L 10.109375 -19.390625 L 4.984375 -19.390625 C 3.410156 -20.867188 2.300781 -22.632812 1.65625 -24.6875 C 1.007812 -26.75 0.6875 -28.816406 0.6875 -30.890625 C 0.6875 -37.078125 2.546875 -41.554688 6.265625 -44.328125 C 9.984375 -47.097656 15.742188 -48.484375 23.546875 -48.484375 L 49.59375 -48.484375 L 49.59375 -30.125 L 26.1875 -30.125 C 24.519531 -30.125 23.164062 -29.71875 22.125 -28.90625 C 21.09375 -28.101562 20.378906 -27.113281 19.984375 -25.9375 C 19.585938 -24.757812 19.539062 -23.570312 19.84375 -22.375 C 20.144531 -21.175781 20.8125 -20.171875 21.84375 -19.359375 C 22.882812 -18.546875 24.304688 -18.140625 26.109375 -18.140625 C 27.960938 -18.140625 29.347656 -18.625 30.265625 -19.59375 C 31.191406 -20.570312 31.675781 -21.71875 31.71875 -23.03125 C 31.769531 -24.34375 31.4375 -25.578125 30.71875 -26.734375 C 30 -27.890625 28.945312 -28.628906 27.5625 -28.953125 L 43.984375 -28.953125 C 46.054688 -27.378906 47.566406 -25.492188 48.515625 -23.296875 C 49.460938 -21.109375 49.9375 -18.859375 49.9375 -16.546875 C 49.9375 -12.398438 49.023438 -9.125 47.203125 -6.71875 C 45.378906 -4.3125 42.804688 -2.585938 39.484375 -1.546875 C 36.160156 -0.515625 32.1875 0 27.5625 0 Z M 0.765625 0 "/></g></g></g><g fill="#762f82" fill-opacity="1"><g transform="translate(316.56694, 270.202991)"><g><path d="M 18.703125 -32.421875 L 18.703125 -31.171875 L 41.765625 -31.171875 L 41.765625 -17.3125 L 18.703125 -17.3125 L 18.703125 -16.0625 L 41.765625 -16.0625 L 41.765625 0 L 0.6875 0 L 0.6875 -48.484375 L 41.765625 -48.484375 L 41.765625 -32.421875 Z M 18.703125 -32.421875 "/></g></g></g><path stroke-linecap="butt" transform="matrix(1.347247, 0, 0, 1.347247, 104.57509, 174.548427)" fill="none" stroke-linejoin="miter" d="M 20.048915 35.015269 L 29.663426 60.254811 L 30.428876 60.254811 L 28.37028 54.595123 L 35.676845 35.015269 L 50.223287 35.015269 L 36.239334 71.0001 L 19.634296 71.0001 L 5.603953 35.015269 Z M 64.874109 46.940626 L 64.874109 47.868444 L 81.992346 47.868444 L 81.992346 58.146925 L 64.874109 58.146925 L 64.874109 59.077642 L 81.992346 59.077642 L 81.992346 71.0001 L 51.507735 71.0001 L 51.507735 35.015269 L 81.992346 35.015269 L 81.992346 46.940626 Z M 84.045143 71.0001 L 84.045143 35.015269 L 98.806143 35.015269 C 102.404336 35.015269 105.408146 35.383497 107.817573 36.119952 C 110.235697 36.856407 112.163819 37.877007 113.604836 39.181751 C 115.042953 40.480695 116.072251 41.976801 116.692729 43.675868 C 117.310308 45.374934 117.60315 47.163882 117.571256 49.048512 C 117.571256 50.277871 117.359598 51.50433 116.94208 52.72499 C 116.53326 53.939851 115.909883 55.018439 115.071947 55.963654 C 114.236911 56.908868 113.146726 57.604731 111.810088 58.048344 L 118.849905 71.0001 L 104.868852 71.0001 L 98.342234 57.381475 L 98.342234 52.437946 L 101.31705 52.437946 C 102.311554 52.437946 103.039311 52.174098 103.500321 51.646402 C 103.970028 51.110007 104.201983 50.53592 104.201983 49.92704 C 104.201983 49.274668 103.970028 48.691882 103.500321 48.181582 C 103.039311 47.662584 102.311554 47.404535 101.31705 47.404535 L 97.411517 47.404535 L 97.411517 71.0001 Z M 119.670444 71.0001 L 119.670444 57.482955 L 127.177069 57.482955 L 126.61168 56.604428 L 122.807628 56.604428 C 121.644956 55.508443 120.821518 54.197901 120.334414 52.6757 C 119.858907 51.153499 119.621154 49.616801 119.621154 48.068505 C 119.621154 43.475807 120.995484 40.15306 123.749943 38.103162 C 126.5102 36.044567 130.78976 35.015269 136.58862 35.015269 L 155.919123 35.015269 L 155.919123 48.633894 L 138.534138 48.633894 C 137.30478 48.633894 136.304476 48.935434 135.536127 49.538516 C 134.764879 50.138698 134.234283 50.875153 133.94144 51.744982 C 133.648598 52.617711 133.610905 53.499138 133.828363 54.395062 C 134.054518 55.282288 134.55322 56.027441 135.321569 56.627623 C 136.092818 57.230705 137.145311 57.532246 138.484848 57.532246 C 139.856278 57.532246 140.885576 57.172716 141.572741 56.453657 C 142.257007 55.734599 142.619436 54.885066 142.651329 53.905058 C 142.686123 52.925051 142.433872 52.008831 141.897477 51.156398 C 141.372681 50.303966 140.592734 49.755973 139.563436 49.512421 L 151.752641 49.512421 C 153.292239 50.675093 154.411419 52.072618 155.115981 53.704997 C 155.817643 55.328678 156.168474 56.995851 156.168474 58.712314 C 156.168474 61.800207 155.492907 64.235729 154.135973 66.015979 C 152.787738 67.799129 150.879913 69.074878 148.412498 69.846126 C 145.945082 70.614476 142.993462 71.0001 139.563436 71.0001 Z M 171.233914 46.940626 L 171.233914 47.868444 L 188.352151 47.868444 L 188.352151 58.146925 L 171.233914 58.146925 L 171.233914 59.077642 L 188.352151 59.077642 L 188.352151 71.0001 L 157.86754 71.0001 L 157.86754 35.015269 L 188.352151 35.015269 L 188.352151 46.940626 Z M 171.233914 46.940626 " stroke="#000000" stroke-width="3.534706" stroke-opacity="1" stroke-miterlimit="4"/><path fill="#f8f4be" d="M 89.089844 223.125 C 89.171875 223.425781 89.257812 223.726562 89.347656 224.027344 C 90 226.171875 97.765625 227.558594 96.324219 229.613281 C 95.882812 230.242188 97.558594 231.738281 96.878906 231.839844 C 96.878906 232.007812 87.941406 232.8125 87.925781 232.980469 C 87.742188 234.941406 85.453125 236.242188 83.890625 234.667969 C 83.320312 234.089844 82.914062 233.441406 82.613281 232.753906 C 82.066406 232.660156 81.550781 232.402344 81.195312 231.976562 C 80.554688 232.195312 79.832031 232.167969 79.289062 231.773438 C 78.597656 231.269531 78.058594 230.667969 77.632812 229.996094 C 76.894531 230.417969 75.953125 230.492188 75.257812 230 C 74.957031 229.78125 74.6875 229.539062 74.449219 229.277344 C 74.429688 229.316406 74.417969 229.359375 74.394531 229.398438 C 74.074219 230.0625 73.246094 230.515625 72.449219 230.550781 C 72.019531 231.074219 71.417969 231.414062 70.640625 231.355469 C 69.582031 231.273438 68.769531 230.78125 68.128906 230.074219 C 67.707031 230.152344 67.25 230.09375 66.800781 229.847656 C 66.65625 229.765625 66.519531 229.679688 66.382812 229.585938 C 65.589844 229.78125 64.671875 229.542969 64.105469 228.710938 C 63.570312 227.921875 63.039062 227.78125 62.597656 226.796875 C 62.132812 227.140625 61.65625 226.710938 61.203125 227.09375 C 60.453125 227.722656 59.675781 228.328125 58.890625 228.925781 C 57.835938 230.207031 56.664062 231.566406 54.96875 231.921875 C 54.5625 232.007812 54.140625 231.921875 53.785156 231.722656 C 52.828125 232.105469 51.863281 231.644531 51.523438 230.855469 C 51.515625 230.835938 51.503906 230.820312 51.5 230.796875 C 51.34375 230.390625 51.355469 229.90625 51.613281 229.410156 C 53.253906 226.261719 56.191406 224.636719 58.578125 222.199219 C 58.285156 221.863281 58.039062 221.484375 57.855469 221.082031 C 57.433594 220.164062 56.960938 218.757812 57.554688 217.824219 C 57.855469 217.355469 58.433594 217.1875 58.929688 217.460938 C 58.949219 217.472656 58.96875 217.488281 58.988281 217.5 C 59.078125 217.390625 59.171875 217.289062 59.261719 217.183594 C 59.695312 216.3125 60.425781 215.652344 61.246094 215.039062 C 61.410156 214.914062 61.601562 214.84375 61.800781 214.808594 C 63.34375 213.566406 65.007812 212.4375 66.464844 211.140625 C 67.980469 209.792969 69.507812 208.675781 71.605469 208.597656 C 72.0625 208.582031 72.511719 208.6875 72.925781 208.875 C 73.035156 208.648438 73.140625 208.433594 73.25 208.242188 C 73.8125 207.253906 74.449219 206.296875 75.324219 205.5625 C 76.074219 204.933594 77.203125 204.757812 78.070312 205.121094 C 78.292969 204.929688 78.523438 204.746094 78.777344 204.585938 C 79.621094 204.058594 80.574219 204.191406 81.28125 204.699219 C 81.402344 204.441406 81.527344 204.183594 81.660156 203.929688 C 82.25 202.777344 83.667969 202.5625 84.738281 203.027344 C 85.871094 201.878906 88.257812 202.5625 88.648438 204.175781 C 88.714844 204.449219 88.773438 204.722656 88.824219 205 C 89.285156 205.171875 89.683594 205.5 89.910156 205.992188 C 90.675781 207.652344 90.554688 209.324219 90.441406 211.101562 C 90.339844 212.671875 90.246094 214.34375 90.367188 215.945312 C 90.441406 216.503906 90.507812 217.058594 90.5625 217.617188 C 90.597656 218.015625 90.523438 218.371094 90.375 218.671875 C 90.453125 219.730469 90.398438 220.789062 90.042969 221.824219 C 89.835938 222.417969 89.5 222.84375 89.089844 223.125 Z M 63.453125 257.082031 C 63.394531 257.492188 63.3125 257.894531 63.21875 258.296875 C 63.550781 260.550781 62.710938 262.570312 61.980469 264.691406 C 61.761719 265.328125 61.351562 265.777344 60.867188 266.050781 C 60.8125 266.183594 60.765625 266.316406 60.707031 266.449219 C 60.023438 268.066406 58.234375 267.84375 57.144531 266.914062 C 56.230469 267.367188 55.246094 266.929688 54.589844 266.214844 C 54.050781 266.324219 53.480469 266.273438 53.007812 266.035156 C 51.859375 267.011719 50.203125 266.75 49.46875 265.34375 C 48.566406 265.699219 47.503906 265.480469 46.910156 264.667969 C 45.929688 264.871094 44.773438 264.363281 44.535156 263.292969 C 44.472656 263.011719 44.433594 262.730469 44.414062 262.445312 C 43.890625 262.332031 43.40625 262.023438 43.042969 261.605469 C 42.6875 261.570312 42.335938 261.46875 42.011719 261.3125 C 40.542969 260.609375 39.980469 258.867188 39.910156 257.363281 C 39.757812 254.242188 41.890625 249.921875 43.933594 247.671875 C 44.652344 246.882812 45.164062 247.296875 46.269531 247.089844 C 47.171875 246.917969 48.214844 247.089844 48.933594 247.65625 C 48.9375 247.65625 48.9375 247.652344 48.941406 247.652344 C 48.28125 246.984375 48.195312 246.070312 48.695312 245.257812 C 49.410156 244.085938 51.78125 244.089844 52.957031 244.230469 C 56.082031 244.597656 60.007812 245.0625 62.195312 247.664062 C 63.613281 249.351562 62.167969 252.105469 60.183594 251.65625 C 60.269531 251.875 60.320312 252.109375 60.34375 252.355469 C 61.398438 252.511719 62.378906 253.34375 62.480469 254.488281 C 63.3125 255.035156 63.597656 256.054688 63.453125 257.082031 Z M 57.660156 250.269531 C 56.8125 249.796875 55.953125 249.371094 55.027344 248.972656 C 55.253906 249.476562 55.410156 250.015625 55.5 250.5625 C 55.839844 250.550781 56.1875 250.621094 56.515625 250.761719 C 56.84375 250.496094 57.242188 250.332031 57.660156 250.269531 Z M 57.660156 250.269531 " fill-opacity="1" fill-rule="nonzero"/><g clip-path="url(#a06fa8564c)"><path fill="#762f82" d="M 95.722656 228.035156 C 90.0625 230.109375 87.675781 230.996094 87.125 231.207031 C 87.023438 229.570312 83.273438 223.457031 72.003906 228.472656 C 72.003906 228.472656 65.496094 229.390625 64.484375 227.417969 C 63.472656 225.449219 58.058594 231.875 58.058594 231.875 L 60.253906 235.433594 C 60.253906 235.433594 57.691406 239.894531 57.855469 244.402344 C 58.019531 248.90625 66.851562 259.304688 77.628906 258.292969 C 88.410156 257.28125 93.46875 250.6875 93.46875 250.6875 L 94.664062 248.574219 L 95.847656 247.28125 C 95.847656 247.28125 98.910156 243.699219 102.390625 245.445312 C 105.875 247.195312 105.476562 248.542969 105.476562 248.542969 L 105.464844 249.507812 C 105.464844 249.507812 107.230469 245.71875 102.109375 242.703125 C 102.109375 242.703125 112.1875 247.179688 118.007812 241.398438 C 118.007812 241.398438 119.101562 242.605469 121.222656 240.800781 C 121.222656 240.800781 115.121094 220.917969 95.722656 228.035156 Z M 81.183594 230.738281 C 81.183594 230.738281 84.167969 228.511719 86.28125 230.992188 C 86.332031 231.050781 86.378906 231.109375 86.425781 231.167969 C 86.886719 231.773438 87.152344 231.671875 87.128906 231.21875 C 88.1875 230.859375 95.320312 228.277344 95.320312 228.277344 C 95.320312 228.277344 95.296875 228.300781 95.25 228.34375 C 92.34375 229.59375 87.863281 232.417969 87.863281 232.417969 L 87.898438 232.496094 C 85.71875 232.949219 83.34375 232.667969 81.183594 230.738281 Z M 101.726562 222.007812 C 101.09375 222.472656 100.433594 222.691406 99.796875 222.753906 Z M 64.636719 257.175781 L 93.019531 272.90625 L 78.667969 272.511719 L 61.933594 266.34375 Z M 33.15625 244.503906 L 42.796875 249.417969 L 39.898438 255.882812 L 29.683594 250.542969 C 29.683594 250.542969 32.476562 247.019531 29.480469 250.613281 C 26.484375 254.207031 25.375 251.433594 25.375 251.433594 L 25.945312 250.371094 L 18.726562 252.449219 L 5.867188 232.648438 L 27.394531 233.023438 L 32.40625 241.894531 L 28.96875 247.6875 L 31.535156 239.914062 C 36.128906 239.371094 33.15625 244.503906 33.15625 244.503906 Z M 69.175781 211.441406 C 70.867188 210.554688 72.421875 208.230469 74.371094 207.941406 C 74.757812 207.886719 75.203125 207.835938 75.636719 207.855469 C 76.105469 207.875 76.566406 207.980469 76.9375 208.253906 C 77.039062 208.332031 77.140625 208.40625 77.238281 208.480469 C 77.917969 208.695312 78.566406 208.855469 78.914062 208.933594 C 78.988281 208.84375 79.058594 208.761719 79.136719 208.664062 C 83.898438 202.945312 87.625 204.925781 87.625 204.925781 C 92.285156 209.847656 90.386719 214.886719 89.429688 216.722656 C 88.875 216.375 88.21875 216.175781 87.511719 216.175781 C 85.511719 216.183594 83.886719 217.8125 83.894531 219.816406 C 83.898438 221.820312 85.53125 223.441406 87.535156 223.4375 C 89.363281 223.429688 90.867188 222.074219 91.113281 220.316406 C 91.082031 221.972656 89.992188 223.234375 89.992188 223.234375 L 90.925781 225.1875 L 92.886719 225.425781 L 99.796875 222.753906 C 97.625 222.96875 95.664062 221.375 95.664062 221.375 C 101.933594 220.621094 103.867188 215.804688 103.867188 215.804688 C 100.863281 218.507812 95.546875 215.785156 95.546875 215.785156 C 102.246094 215.070312 102.375 211.425781 102.375 211.425781 C 104.359375 210.15625 108.035156 202.164062 106.4375 204.558594 C 104.839844 206.949219 98.015625 208.695312 98.015625 208.695312 C 100.988281 206.34375 102.453125 200.679688 102.453125 200.679688 C 100.660156 203.359375 93.824219 203.25 93.824219 203.25 C 95.414062 201.949219 98.136719 197.464844 98.789062 196.375 C 106.710938 195.386719 114.265625 194.957031 114.765625 192.992188 C 115.75 189.125 95.113281 182.824219 84.539062 185.71875 C 73.964844 188.609375 53.015625 196.679688 53.015625 196.679688 C 53.015625 196.679688 6.882812 215.214844 41.046875 222.402344 L 52.332031 220.035156 C 52.332031 220.035156 60.773438 216.707031 68.585938 212.339844 C 68.59375 211.992188 68.765625 211.65625 69.175781 211.441406 Z M 90.894531 197.644531 C 88.703125 199.09375 83.980469 200.859375 80.546875 203.109375 C 80.632812 202.976562 80.714844 202.84375 80.792969 202.714844 C 82.289062 200.167969 86.714844 200.414062 90.894531 197.644531 Z M 122.34375 155.117188 C 122.160156 155.320312 122.042969 155.566406 122.011719 155.820312 C 116.164062 156.308594 95.316406 158.875 78.207031 171.207031 C 78.207031 171.207031 82.816406 178.933594 82.863281 181.027344 C 82.914062 183.125 81.96875 185.722656 81.96875 185.722656 L 48.511719 192.394531 C 48.511719 192.394531 21.6875 173.585938 75.613281 158.726562 C 75.613281 158.726562 111.148438 153.699219 122.34375 155.117188 Z M 122.34375 155.117188 " fill-opacity="1" fill-rule="nonzero"/></g><path fill="#ffffff" d="M 65.957031 218.015625 C 65.828125 217.886719 65.632812 217.828125 65.449219 217.851562 C 65.429688 217.804688 65.414062 217.757812 65.390625 217.714844 C 65.953125 217.046875 66.527344 216.347656 66.570312 215.449219 C 66.589844 215.078125 66.175781 214.761719 65.820312 214.882812 C 65.199219 215.09375 64.878906 215.582031 64.640625 216.167969 C 64.558594 216.375 64.464844 216.761719 64.285156 216.96875 C 64.253906 216.964844 64.226562 216.957031 64.195312 216.957031 C 64.050781 216.960938 63.910156 216.953125 63.765625 216.945312 C 63.695312 216.929688 63.628906 216.910156 63.558594 216.882812 C 63.585938 216.894531 63.609375 216.902344 63.632812 216.914062 C 63.363281 216.816406 63.097656 216.777344 62.796875 216.859375 C 62.464844 216.953125 62.175781 217.175781 62.003906 217.476562 C 61.667969 218.054688 61.824219 218.996094 62.488281 219.296875 C 62.878906 219.472656 63.15625 219.539062 63.582031 219.59375 C 63.789062 219.617188 63.996094 219.621094 64.203125 219.621094 C 64.429688 219.621094 64.640625 219.554688 64.828125 219.453125 C 65.046875 219.671875 65.449219 219.691406 65.664062 219.449219 C 65.796875 219.300781 65.859375 219.167969 65.929688 218.988281 C 65.949219 218.9375 65.964844 218.886719 65.980469 218.835938 C 66.003906 218.800781 66.035156 218.769531 65.988281 218.824219 C 65.988281 218.820312 65.988281 218.816406 65.988281 218.8125 C 66.175781 218.574219 66.183594 218.242188 65.957031 218.015625 Z M 65.980469 218.828125 C 65.976562 218.835938 65.96875 218.84375 65.960938 218.851562 C 65.96875 218.84375 65.976562 218.832031 65.984375 218.820312 C 65.984375 218.824219 65.980469 218.828125 65.980469 218.828125 Z M 65.980469 218.828125 " fill-opacity="1" fill-rule="nonzero"/><g clip-path="url(#02d3aed9c7)"><path fill="#000000" d="M 48.511719 192.394531 C 48.511719 192.394531 48.511719 192.398438 48.511719 192.402344 C 48.511719 192.40625 48.515625 192.414062 48.515625 192.417969 C 48.539062 192.609375 48.589844 192.792969 48.660156 192.96875 C 48.660156 192.96875 48.65625 192.96875 48.65625 192.96875 C 48.660156 192.976562 48.664062 192.980469 48.664062 192.984375 C 48.6875 193.050781 48.714844 193.113281 48.746094 193.175781 C 48.878906 193.472656 49.046875 193.765625 49.199219 194.082031 C 49.242188 194.167969 49.277344 194.25 49.3125 194.335938 C 49.347656 194.421875 49.375 194.507812 49.40625 194.59375 C 49.445312 194.707031 49.480469 194.820312 49.507812 194.933594 C 49.511719 194.933594 49.511719 194.933594 49.511719 194.933594 C 49.738281 195.816406 49.703125 196.699219 49.714844 197.601562 C 49.714844 197.609375 49.714844 197.621094 49.714844 197.632812 C 49.71875 197.851562 49.726562 198.074219 49.738281 198.292969 C 49.738281 198.300781 49.738281 198.308594 49.738281 198.316406 C 49.742188 198.347656 49.742188 198.382812 49.746094 198.414062 C 49.878906 198.34375 50.007812 198.261719 50.136719 198.183594 C 51.34375 197.757812 52.539062 197.101562 53.664062 196.636719 C 55.359375 195.929688 57.070312 195.253906 58.792969 194.617188 C 62.46875 193.261719 66.140625 192.054688 69.894531 190.9375 C 73.5 189.867188 77.140625 188.894531 80.710938 187.714844 C 81.929688 187.3125 83.152344 186.976562 84.386719 186.632812 L 84.390625 186.632812 C 84.523438 186.59375 84.65625 186.558594 84.789062 186.519531 C 84.957031 186.472656 85.140625 186.410156 85.324219 186.335938 L 89.511719 185.007812 C 89.511719 185.007812 84.398438 180.292969 83.414062 180.070312 C 83.414062 180.054688 83.40625 180.035156 83.40625 180.019531 C 83.402344 179.964844 83.394531 179.914062 83.386719 179.867188 C 83.386719 179.863281 83.386719 179.863281 83.386719 179.859375 C 83.308594 179.429688 83.066406 179.085938 82.746094 178.75 C 82.207031 178.1875 82.492188 176.816406 82.109375 176.042969 C 81.589844 174.972656 80.617188 174.289062 79.96875 173.308594 C 79.765625 173 78.929688 171.4375 78.703125 170.90625 C 79.265625 170.5625 79.824219 170.230469 80.382812 169.957031 C 82.347656 168.988281 84.351562 168.09375 86.335938 167.183594 C 90.550781 165.253906 94.722656 163.328125 99.09375 161.773438 C 103.175781 160.324219 107.339844 159.0625 111.554688 158.074219 C 113.644531 157.582031 115.75 157.1875 117.859375 156.777344 C 120.363281 156.289062 122.863281 155.605469 125.394531 155.261719 C 125.589844 155.234375 125.59375 154.972656 125.394531 154.953125 C 120.980469 154.527344 116.515625 155.503906 112.214844 156.421875 C 107.621094 157.402344 103.066406 158.542969 98.621094 160.078125 C 94.28125 161.574219 90.117188 163.492188 86.042969 165.601562 C 83.9375 166.691406 81.878906 167.828125 79.867188 169.082031 C 78.269531 170.074219 76.117188 171.078125 74.964844 172.589844 C 74.90625 172.664062 75 172.765625 75.082031 172.742188 C 76.152344 172.4375 77.191406 171.828125 78.210938 171.207031 C 78.167969 172.546875 78.957031 174.226562 79.609375 175.183594 C 80.351562 176.277344 80.777344 177.007812 80.703125 178.367188 C 80.675781 178.839844 80.832031 179.179688 81.078125 179.5625 C 81.207031 179.761719 81.617188 179.972656 81.640625 180.160156 C 70.878906 179.957031 54.542969 188.707031 49.707031 191.441406 C 49.308594 191.636719 48.90625 191.832031 48.503906 192.015625 C 48.5 192.058594 48.5 192.097656 48.5 192.136719 C 48.378906 192.207031 48.3125 192.246094 48.3125 192.246094 L 48.5 192.183594 C 48.5 192.253906 48.503906 192.324219 48.511719 192.394531 Z M 52.089844 194.847656 C 52.066406 194.867188 52.039062 194.890625 52.011719 194.910156 C 52.011719 194.890625 52.007812 194.875 52.003906 194.855469 C 52.035156 194.851562 52.0625 194.851562 52.089844 194.847656 Z M 116.933594 241.769531 C 116.464844 241.660156 116 241.511719 115.550781 241.335938 C 115.496094 241.476562 115.378906 241.597656 115.179688 241.65625 C 112.351562 242.925781 109.378906 241.984375 106.601562 240.988281 C 102.914062 239.667969 99.421875 239.058594 95.519531 239.957031 C 91.472656 240.886719 87.824219 242.710938 84.046875 244.367188 C 80.753906 245.8125 77.28125 246.914062 73.789062 245.496094 C 73.667969 245.445312 73.710938 245.273438 73.84375 245.296875 C 76.351562 245.722656 78.300781 245.742188 80.703125 244.824219 C 82.527344 244.128906 84.304688 243.304688 86.054688 242.445312 C 89.292969 240.851562 92.722656 239.367188 96.296875 238.761719 C 99.53125 238.210938 102.546875 238.378906 105.636719 239.46875 C 108.339844 240.421875 111.507812 241.871094 114.355469 240.773438 C 114.117188 240.644531 113.882812 240.511719 113.660156 240.367188 C 110.582031 238.386719 107.515625 236.472656 103.761719 236.183594 C 99.542969 235.859375 95.5 236.886719 91.464844 237.984375 C 88.464844 238.800781 85.011719 240.328125 81.867188 239.527344 C 81.734375 239.496094 81.757812 239.277344 81.898438 239.285156 C 85.785156 239.542969 89.238281 237.808594 92.890625 236.753906 C 96.34375 235.757812 100.125 234.75 103.757812 235.097656 C 107.003906 235.410156 109.945312 236.554688 112.667969 238.332031 C 114.011719 239.210938 115.382812 240.207031 116.9375 240.679688 C 118.796875 241.246094 120.296875 240.914062 122.15625 240.675781 C 122.378906 240.644531 122.425781 240.96875 122.261719 241.074219 C 120.96875 241.898438 119.472656 242.125 117.996094 241.957031 C 117.976562 242.027344 117.941406 242.09375 117.871094 242.15625 C 115.257812 244.492188 111.886719 244.929688 108.503906 244.730469 C 106.574219 244.617188 104.847656 244.011719 102.988281 243.554688 C 101.105469 243.089844 99.152344 242.703125 97.210938 242.550781 C 97.152344 242.546875 97.140625 242.46875 97.199219 242.445312 C 98.613281 241.964844 100.632812 242.519531 102.105469 242.703125 C 103.625 242.894531 105.082031 243.390625 106.589844 243.636719 C 110.171875 244.21875 113.972656 243.984375 116.933594 241.769531 Z M 95.394531 231.582031 C 95.3125 231.578125 95.3125 231.46875 95.394531 231.457031 C 97.980469 231.144531 100.585938 230.40625 103.074219 229.648438 C 105.148438 229.015625 107.351562 228.929688 109.5 229.097656 C 110.425781 229.171875 111.261719 229.4375 112.113281 229.808594 C 112.980469 230.179688 114.117188 230.289062 114.871094 230.910156 C 115.863281 231.730469 117.441406 233.125 117.238281 234.558594 C 117.230469 234.621094 117.152344 234.621094 117.117188 234.59375 C 116.511719 234.125 116.34375 233.386719 115.894531 232.78125 C 115.105469 231.71875 114.066406 231.042969 112.742188 230.816406 C 110.925781 230.507812 109.09375 230.175781 107.238281 230.238281 C 103.253906 230.378906 99.394531 231.898438 95.394531 231.582031 Z M 96.425781 264.621094 L 124.261719 265.859375 L 96.953125 256.953125 L 120.0625 256.886719 L 98.066406 251.203125 L 100.078125 245.273438 C 100.90625 245.296875 101.726562 245.445312 102.542969 245.726562 C 103.289062 245.984375 103.734375 246.613281 104.296875 247.082031 C 104.632812 247.507812 104.894531 247.929688 105.085938 248.429688 C 105.125 248.546875 105.164062 248.664062 105.203125 248.78125 C 105.3125 249.253906 105.246094 249.746094 105.339844 250.203125 C 105.332031 250.261719 105.324219 250.320312 105.316406 250.378906 C 105.3125 250.421875 105.378906 250.429688 105.394531 250.398438 C 105.414062 250.421875 105.445312 250.4375 105.46875 250.410156 C 105.671875 250.191406 105.722656 249.878906 105.699219 249.550781 C 105.851562 248.75 105.75 247.78125 105.222656 247.273438 C 104.621094 246.011719 103.078125 245.148438 101.8125 244.742188 C 99.703125 244.070312 96.9375 244.648438 94.953125 245.453125 C 94.601562 245.59375 94.261719 245.753906 93.925781 245.925781 C 91.976562 246.902344 90.242188 248.289062 88.371094 249.417969 C 86.128906 250.769531 83.847656 252.207031 81.46875 253.296875 C 75.683594 255.953125 67.859375 255.511719 62.914062 251.734375 C 60.316406 249.75 58.511719 246.84375 58.21875 242.980469 C 58.203125 242.753906 57.84375 242.675781 57.800781 242.925781 C 57.382812 245.410156 58.261719 247.847656 59.730469 249.875 C 59.722656 249.867188 59.71875 249.867188 59.714844 249.863281 C 59.707031 249.859375 59.703125 249.855469 59.699219 249.847656 C 59.695312 249.84375 59.691406 249.84375 59.6875 249.839844 C 59.257812 249.390625 58.375 249.0625 58.019531 248.90625 C 57.25 248.570312 56.144531 248.0625 55.234375 248.132812 C 55.234375 248.132812 55.234375 248.132812 55.234375 248.128906 C 54.855469 247.488281 54.292969 246.980469 53.558594 246.765625 C 52.460938 246.445312 51.539062 246.625 50.757812 247.101562 C 50.425781 247.144531 50.097656 247.179688 49.757812 247.121094 C 49.371094 247.054688 49.027344 246.765625 48.675781 246.597656 C 48.601562 246.40625 48.546875 246.199219 48.519531 246.003906 C 48.496094 245.839844 48.511719 245.675781 48.558594 245.515625 C 48.582031 245.433594 48.632812 245.367188 48.683594 245.304688 C 48.753906 245.277344 48.816406 245.246094 48.875 245.195312 C 48.898438 245.171875 48.882812 245.136719 48.855469 245.128906 C 48.847656 245.125 48.839844 245.125 48.832031 245.121094 C 48.839844 245.109375 48.847656 245.101562 48.855469 245.089844 C 48.855469 245.085938 48.855469 245.085938 48.855469 245.082031 C 48.953125 245.070312 49.050781 245.050781 49.136719 245 C 49.160156 244.984375 49.160156 244.949219 49.136719 244.933594 C 48.960938 244.832031 48.730469 244.898438 48.550781 244.957031 C 48.40625 245 48.304688 245.070312 48.214844 245.167969 C 47.828125 245.160156 47.640625 245.632812 47.503906 245.945312 C 47.34375 246.308594 47.035156 246.859375 47.109375 247.261719 C 47.121094 247.324219 47.167969 247.367188 47.222656 247.390625 C 47.222656 247.394531 47.21875 247.394531 47.21875 247.394531 C 47.226562 247.433594 47.246094 247.472656 47.285156 247.507812 C 47.910156 248.054688 48.476562 248.394531 48.675781 249.273438 L 48.675781 249.277344 C 48.074219 250.96875 47.582031 252.695312 47.074219 254.417969 C 47.050781 255.109375 46.859375 255.773438 46.65625 256.4375 C 46.570312 256.832031 46.460938 257.21875 46.351562 257.605469 C 46.257812 257.917969 46.164062 258.230469 46.074219 258.542969 C 46.0625 258.582031 46.054688 258.621094 46.042969 258.65625 C 45.996094 258.820312 45.949219 258.980469 45.910156 259.140625 C 45.910156 259.144531 45.914062 259.144531 45.917969 259.144531 C 45.890625 259.253906 45.859375 259.359375 45.832031 259.46875 C 45.933594 259.222656 46.042969 258.984375 46.15625 258.742188 C 46.191406 258.667969 46.222656 258.59375 46.257812 258.519531 C 46.300781 258.4375 46.339844 258.355469 46.382812 258.273438 C 46.441406 258.152344 46.5 258.03125 46.5625 257.914062 C 47.175781 256.703125 47.828125 255.507812 48.105469 254.171875 C 48.136719 254.019531 48.191406 253.894531 48.261719 253.785156 C 48.675781 252.386719 49.066406 250.976562 49.378906 249.550781 C 49.769531 248.878906 50.25 248.222656 50.84375 247.800781 C 51.0625 247.742188 51.257812 247.644531 51.410156 247.484375 C 51.875 247.300781 52.402344 247.257812 52.996094 247.429688 C 54.523438 247.871094 55.207031 249.65625 54.90625 251.105469 C 54.894531 251.160156 54.890625 251.210938 54.902344 251.257812 C 54.289062 252.726562 53.800781 254.253906 53.289062 255.761719 C 53.199219 256.03125 53.097656 256.304688 53 256.578125 C 52.832031 258.042969 52.316406 259.445312 52.179688 260.910156 C 52.292969 260.742188 52.398438 260.570312 52.492188 260.394531 C 53.070312 259.351562 53.382812 258.195312 53.761719 257.050781 C 54.363281 255.230469 54.964844 253.398438 55.496094 251.554688 C 55.554688 251.523438 55.605469 251.480469 55.648438 251.417969 C 56.25 250.609375 57.640625 251.277344 58.28125 251.609375 C 58.917969 251.933594 59.242188 252.734375 59.5625 253.332031 C 59.582031 253.363281 59.601562 253.394531 59.625 253.421875 C 59.480469 253.839844 59.511719 254.367188 59.433594 254.785156 C 59.253906 255.710938 58.984375 256.628906 58.699219 257.527344 C 58.605469 257.824219 58.507812 258.121094 58.40625 258.421875 C 58.34375 260.160156 57.644531 261.765625 57.179688 263.425781 C 57.378906 263.246094 57.5625 263.035156 57.730469 262.800781 C 58.722656 261.382812 59.15625 259.117188 59.550781 257.757812 C 59.726562 257.152344 60.445312 255.195312 60.375 253.980469 C 60.457031 253.96875 60.535156 253.9375 60.601562 253.882812 C 60.628906 253.863281 60.660156 253.84375 60.691406 253.832031 C 62.285156 254.265625 62.886719 255.527344 63.078125 256.992188 C 63.023438 257.050781 62.996094 257.132812 63.023438 257.222656 C 63.078125 257.390625 63.113281 257.570312 63.140625 257.757812 C 63.164062 258.273438 63.152344 258.804688 63.125 259.320312 C 62.941406 260.679688 62.414062 262.121094 62.058594 263.191406 C 61.917969 263.609375 61.769531 264.089844 61.59375 264.582031 C 61.429688 265.03125 61.242188 265.480469 61.015625 265.890625 C 60.960938 265.992188 60.902344 266.09375 60.84375 266.1875 C 60.214844 267.191406 59.3125 267.8125 57.917969 267.179688 C 57.15625 266.835938 56.894531 266.140625 56.03125 265.875 C 55.167969 265.617188 54.117188 266.144531 53.226562 266.015625 C 52.578125 265.925781 52.152344 265.058594 51.722656 264.644531 C 51.273438 264.214844 50.710938 264.109375 50.117188 264.09375 C 49.246094 264.066406 48.484375 264.515625 47.636719 264.09375 C 47.089844 263.824219 46.679688 263.195312 46.289062 262.75 C 45.175781 261.480469 44 261.265625 42.414062 260.945312 C 41.171875 260.691406 40.460938 259.347656 40.078125 258.292969 C 39.859375 257.6875 39.933594 257.019531 40.113281 256.363281 C 40.175781 256.144531 40.246094 255.929688 40.324219 255.714844 C 40.410156 255.472656 40.503906 255.238281 40.589844 255.011719 C 40.640625 254.890625 40.6875 254.769531 40.734375 254.652344 C 41.394531 252.945312 42.859375 250.945312 42.804688 249.058594 C 42.800781 248.929688 42.625 248.882812 42.558594 248.996094 C 41.964844 249.953125 41.613281 251.058594 41.085938 252.0625 C 40.628906 252.917969 40.164062 253.757812 39.738281 254.625 C 38.621094 254.125 37.503906 253.621094 36.386719 253.117188 C 35.183594 252.574219 33.984375 252.03125 32.78125 251.488281 C 34.0625 245.792969 33.414062 244.722656 33.164062 244.527344 C 33.164062 244.519531 33.164062 244.511719 33.160156 244.503906 C 33.152344 244.472656 33.109375 244.457031 33.085938 244.480469 C 32.460938 245.183594 31.96875 246.070312 31.503906 246.9375 C 29.910156 249.0625 27.691406 251.6875 27.636719 251.753906 C 27.375 251.890625 27.097656 251.929688 26.824219 251.707031 C 26.578125 251.507812 26.503906 251.222656 26.359375 250.976562 C 26.386719 250.914062 26.410156 250.855469 26.433594 250.792969 C 26.460938 250.726562 26.472656 250.667969 26.480469 250.613281 C 27.355469 249.355469 31.421875 243.859375 31.507812 240.222656 C 31.539062 240.136719 31.550781 240.03125 31.535156 239.914062 C 31.535156 239.910156 31.535156 239.90625 31.535156 239.898438 C 31.542969 239.75 31.480469 239.742188 31.476562 239.597656 C 31.269531 238.679688 30.714844 237.828125 30.179688 237.070312 C 29.332031 235.863281 28.621094 234.390625 27.636719 233.289062 C 27.628906 233.183594 27.542969 233.085938 27.441406 233.074219 C 27.425781 233.058594 27.414062 233.039062 27.398438 233.023438 C 27.335938 232.964844 27.199219 233.003906 27.210938 233.101562 C 27.214844 233.125 27.222656 233.148438 27.222656 233.167969 C 26.109375 233.980469 25.503906 235.480469 24.941406 236.683594 C 24.332031 237.984375 23.664062 239.246094 23.023438 240.527344 C 21.410156 239.71875 19.78125 238.941406 18.113281 238.277344 C 14.105469 236.6875 10.40625 234.484375 6.476562 232.742188 C 6.371094 232.695312 6.28125 232.710938 6.210938 232.757812 C 6.203125 232.757812 6.199219 232.753906 6.191406 232.75 C 6.085938 232.703125 5.976562 232.6875 5.871094 232.652344 C 5.871094 232.648438 5.871094 232.648438 5.867188 232.644531 C 5.847656 232.625 5.816406 232.652344 5.832031 232.675781 C 5.960938 232.929688 6.089844 233.167969 6.265625 233.394531 C 6.316406 233.457031 6.414062 233.605469 6.519531 233.667969 C 6.566406 233.75 6.613281 233.835938 6.664062 233.917969 C 6.808594 234.164062 6.9375 234.445312 7.113281 234.679688 L 17.78125 254.761719 L 25.351562 251.867188 C 25.359375 251.851562 25.367188 251.835938 25.375 251.816406 C 25.597656 252.53125 26.386719 253.191406 27.066406 253.257812 C 27.734375 253.328125 28.332031 253.035156 28.859375 252.648438 C 29.1875 252.40625 29.402344 252.027344 29.683594 251.742188 L 30.4375 251.734375 C 31.554688 252.269531 32.671875 252.804688 33.792969 253.335938 C 32.519531 254.675781 31.101562 258.515625 29.90625 262.449219 C 29.855469 262.671875 29.808594 262.898438 29.753906 263.121094 C 29.722656 264.113281 29.796875 265.097656 30.019531 266.035156 C 30.46875 267.949219 31.429688 269.28125 32.714844 270.222656 C 32.902344 270.359375 33.09375 270.488281 33.292969 270.605469 C 33.492188 270.726562 33.695312 270.839844 33.902344 270.941406 C 33.90625 270.945312 33.910156 270.945312 33.914062 270.949219 C 34.117188 271.050781 34.324219 271.144531 34.539062 271.230469 C 34.550781 271.238281 34.5625 271.242188 34.570312 271.246094 C 34.777344 271.328125 34.984375 271.40625 35.199219 271.480469 C 35.21875 271.488281 35.238281 271.496094 35.261719 271.503906 C 35.464844 271.570312 35.667969 271.632812 35.878906 271.691406 C 35.910156 271.703125 35.941406 271.710938 35.972656 271.71875 C 36.171875 271.773438 36.371094 271.824219 36.574219 271.871094 C 36.621094 271.882812 36.664062 271.894531 36.707031 271.902344 C 36.90625 271.949219 37.101562 271.988281 37.304688 272.023438 C 37.355469 272.035156 37.402344 272.046875 37.453125 272.054688 C 37.703125 272.101562 37.953125 272.140625 38.207031 272.179688 C 38.75 272.257812 39.289062 272.324219 39.832031 272.390625 C 39.902344 272.398438 39.972656 272.40625 40.042969 272.414062 C 40.5625 272.472656 41.082031 272.527344 41.601562 272.574219 C 41.6875 272.582031 41.773438 272.589844 41.859375 272.597656 C 42.382812 272.644531 42.90625 272.691406 43.429688 272.730469 C 43.496094 272.738281 43.558594 272.742188 43.625 272.75 C 44.480469 272.816406 45.332031 272.878906 46.1875 272.945312 L 91.988281 273 C 92.324219 273.019531 92.65625 273.035156 92.988281 273.050781 L 92.996094 273.074219 L 93.425781 273.070312 C 97.351562 273.230469 101.320312 273.050781 105.238281 273.042969 C 106.558594 273.039062 107.875 273.035156 109.191406 273.027344 C 109.515625 273.050781 109.84375 273.050781 110.160156 273.027344 C 110.476562 273.023438 110.792969 273.023438 111.109375 273.023438 L 129.648438 272.96875 Z M 6.105469 232.914062 C 6.066406 232.875 6.03125 232.832031 5.992188 232.789062 C 6.035156 232.820312 6.074219 232.851562 6.117188 232.886719 C 6.113281 232.894531 6.109375 232.90625 6.105469 232.914062 Z M 6.976562 233.78125 L 6.878906 233.644531 C 6.925781 233.675781 6.976562 233.707031 7.023438 233.738281 C 7.007812 233.75 6.992188 233.761719 6.976562 233.78125 Z M 26.480469 250.46875 C 26.480469 250.46875 26.480469 250.464844 26.480469 250.464844 Z M 27.375 233.847656 C 27.539062 234.398438 27.785156 234.941406 28.050781 235.476562 L 30.207031 241.554688 C 30.195312 241.585938 30.183594 241.617188 30.171875 241.648438 C 29.875 242.328125 29.527344 242.984375 29.175781 243.636719 C 27.46875 242.8125 25.777344 241.929688 24.078125 241.0625 C 25.0625 238.601562 26.113281 236.148438 27.375 233.847656 Z M 23.253906 243.148438 C 23.320312 242.980469 23.386719 242.8125 23.453125 242.640625 C 25.074219 243.515625 26.707031 244.359375 28.363281 245.15625 C 28.089844 245.667969 27.800781 246.171875 27.503906 246.671875 C 27.496094 246.667969 27.496094 246.667969 27.492188 246.664062 C 26.574219 246.359375 25.601562 246.359375 24.644531 246.363281 C 23.804688 246.367188 22.964844 246.253906 22.132812 246.21875 C 22.496094 245.191406 22.859375 244.164062 23.253906 243.148438 Z M 17.183594 239.082031 C 18.875 240.082031 20.582031 241.0625 22.304688 242.015625 C 21.800781 243.097656 21.359375 244.207031 20.898438 245.3125 C 18.707031 243.144531 16.222656 241.191406 13.902344 239.175781 C 12.601562 238.046875 11.167969 237.023438 9.8125 235.957031 C 9.308594 235.5625 8.902344 235.0625 8.457031 234.617188 C 11.285156 236.238281 14.386719 237.421875 17.183594 239.082031 Z M 19.929688 247.535156 C 19.589844 248.253906 19.109375 249.085938 18.71875 249.9375 L 7.714844 234.796875 C 9.523438 236.484375 11.152344 238.445312 12.902344 240.183594 C 15.269531 242.53125 17.664062 244.824219 20.15625 247.039062 C 20.082031 247.207031 20.007812 247.371094 19.929688 247.535156 Z M 20.585938 250.527344 C 20.757812 250.042969 20.910156 249.566406 21.0625 249.164062 C 21.257812 248.660156 21.441406 248.152344 21.625 247.644531 C 22.785156 248.542969 25.019531 248.117188 26.511719 248.273438 C 26.40625 248.433594 26.300781 248.59375 26.195312 248.753906 Z M 77.160156 271.8125 C 72.320312 269.558594 67.476562 267.304688 62.628906 265.0625 C 63.03125 264.1875 63.335938 263.273438 63.605469 262.535156 C 63.972656 261.542969 64.328125 260.269531 64.410156 259.199219 L 90.871094 272.300781 Z M 91.96875 271.957031 L 91.984375 271.902344 C 92 271.917969 92.019531 271.933594 92.039062 271.949219 C 92.015625 271.953125 91.992188 271.953125 91.96875 271.957031 Z M 34.152344 221.492188 C 35.265625 222.125 36.425781 222.308594 37.636719 222.378906 C 41.265625 222.976562 47.234375 222.886719 55.765625 219.507812 C 56.546875 219.347656 57.324219 219.140625 58.089844 218.8125 C 58.398438 218.679688 58.703125 218.539062 59.003906 218.394531 C 59.023438 218.414062 59.046875 218.429688 59.074219 218.4375 C 59.707031 218.683594 60.308594 218.753906 60.882812 218.699219 C 60.757812 219.292969 61.117188 219.9375 61.550781 220.378906 C 62.488281 221.339844 63.386719 221.628906 64.703125 221.71875 C 66.230469 221.820312 68.882812 220.578125 69.222656 218.878906 C 69.5625 218.507812 69.710938 218.039062 69.742188 217.527344 C 69.742188 217.5 69.703125 217.488281 69.6875 217.515625 C 69.675781 217.53125 69.671875 217.554688 69.660156 217.574219 C 69.644531 217.558594 69.621094 217.558594 69.601562 217.582031 C 69.222656 218.109375 68.839844 218.613281 68.394531 219.0625 C 68.300781 219.148438 68.207031 219.238281 68.113281 219.332031 C 67.902344 219.519531 67.675781 219.703125 67.429688 219.863281 C 66.910156 220.203125 66.316406 220.425781 65.703125 220.503906 C 65.460938 220.53125 65.226562 220.507812 64.996094 220.472656 C 64.996094 220.472656 64.996094 220.46875 64.996094 220.46875 C 64.804688 220.367188 64.621094 220.253906 64.433594 220.144531 C 65.773438 220.617188 67.21875 219.542969 67.667969 218.289062 C 67.683594 218.25 67.625 218.21875 67.597656 218.25 C 66.789062 219.113281 65.910156 219.921875 64.734375 219.796875 C 65.308594 219.621094 65.863281 219.304688 66.339844 218.859375 C 67.171875 218.082031 67.691406 217.023438 67.898438 215.917969 C 68.011719 215.300781 68.164062 213.921875 67.773438 213.175781 C 68.203125 212.875 68.625 212.5625 69.035156 212.234375 C 70.695312 210.894531 72.214844 209.515625 74.039062 208.394531 C 74.425781 208.160156 74.804688 207.910156 75.179688 207.660156 C 75.5625 208.101562 76.429688 208.316406 76.921875 208.53125 C 77.660156 208.855469 78.40625 209.03125 79.199219 208.992188 C 79.183594 209.121094 79.171875 209.25 79.175781 209.378906 C 79.175781 209.425781 79.238281 209.453125 79.273438 209.417969 C 79.414062 209.261719 79.539062 209.09375 79.660156 208.921875 C 79.820312 208.84375 79.917969 208.667969 79.921875 208.503906 C 80.144531 208.140625 80.351562 207.769531 80.613281 207.429688 C 81.347656 206.488281 82.414062 205.855469 83.519531 205.460938 C 85.625 204.714844 87.511719 205.148438 88.632812 207.113281 C 90.238281 209.9375 90.113281 213.621094 88.84375 216.496094 C 88.832031 216.523438 88.820312 216.550781 88.8125 216.578125 C 88.058594 216.105469 87.285156 216.003906 86.429688 216.058594 C 86.421875 215.988281 86.410156 215.914062 86.402344 215.84375 C 86.550781 215.824219 86.699219 215.765625 86.828125 215.664062 C 88.445312 214.359375 87.800781 211.679688 86.78125 210.210938 C 86.09375 209.226562 84.140625 208.199219 83.101562 209.058594 C 83.234375 208.390625 83.789062 207.8125 84.359375 207.382812 C 85.21875 206.734375 86.070312 206.875 86.996094 207.171875 C 87.191406 207.234375 87.363281 206.957031 87.199219 206.824219 C 85.40625 205.328125 81.855469 206.929688 82.03125 209.410156 C 82.078125 210.054688 82.257812 210.507812 82.578125 211.070312 C 83.132812 212.046875 82.152344 212.667969 82.5 213.539062 C 82.730469 214.121094 82.933594 214.414062 83.523438 214.679688 C 83.707031 214.761719 83.910156 214.789062 84.109375 214.8125 C 85.097656 214.921875 85.570312 215.527344 85.613281 216.515625 C 85.613281 216.519531 85.613281 216.523438 85.613281 216.53125 C 83.855469 216.632812 83.394531 220.15625 83.679688 221.378906 C 83.796875 221.886719 84.035156 222.355469 84.351562 222.769531 C 84.4375 223.539062 85.386719 224.585938 85.828125 225.046875 C 86.4375 225.679688 87.257812 226.015625 88.101562 226.019531 C 88.019531 226.808594 87.886719 227.59375 87.742188 228.375 C 87.515625 229.566406 87.222656 230.8125 86.652344 231.898438 C 86.363281 231.949219 86.074219 231.984375 85.785156 232.015625 C 84.132812 232.175781 82.910156 231.53125 81.496094 230.882812 C 81.960938 230.65625 82.433594 230.460938 82.902344 230.308594 C 83.742188 230.035156 84.386719 230.152344 85.007812 230.445312 C 85.449219 230.648438 85.871094 230.945312 86.34375 231.25 C 86.398438 231.285156 86.449219 231.21875 86.425781 231.171875 C 86.117188 230.515625 85.691406 230.101562 85.1875 229.871094 C 82.96875 228.84375 79.253906 231.328125 77.660156 232.335938 C 75.554688 233.675781 73.265625 234.832031 70.84375 235.445312 C 69.234375 235.855469 68.210938 235.363281 66.851562 234.597656 C 65.691406 233.9375 65.546875 232.386719 64.824219 231.371094 C 64.789062 231.324219 64.695312 231.316406 64.683594 231.386719 C 64.480469 232.617188 65.234375 234.199219 66.1875 235.230469 C 65.070312 235.226562 64.09375 234.515625 63.304688 233.773438 C 62.820312 233.324219 62.480469 232.828125 62.242188 232.203125 C 62.0625 231.738281 62.015625 231.371094 61.679688 230.988281 C 61.636719 230.9375 61.539062 230.976562 61.546875 231.046875 C 61.660156 232.4375 62.183594 234.066406 63.226562 235.039062 C 62.988281 235.03125 62.742188 235.042969 62.511719 234.992188 C 61.890625 234.847656 61.429688 234.292969 61.09375 233.785156 C 60.710938 233.210938 60.40625 232.738281 60.210938 232.058594 C 60.1875 231.984375 60.167969 231.910156 60.148438 231.839844 C 61.121094 231.011719 62.058594 230.144531 62.996094 229.277344 C 63.710938 228.617188 64.421875 227.960938 65.148438 227.3125 C 65.714844 226.804688 66.304688 226.3125 66.742188 225.6875 C 67.429688 225.117188 67.605469 224.242188 66.941406 223.355469 C 66.910156 223.3125 66.867188 223.296875 66.824219 223.296875 C 66.8125 223.277344 66.808594 223.261719 66.796875 223.246094 C 66.722656 223.15625 66.617188 223.140625 66.515625 223.191406 C 66.496094 223.199219 66.507812 223.230469 66.527344 223.222656 C 66.566406 223.25 66.585938 223.25 66.589844 223.222656 C 66.585938 223.238281 66.585938 223.25 66.589844 223.265625 C 66.597656 223.316406 66.628906 223.367188 66.648438 223.414062 C 66.699219 223.542969 66.75 223.679688 66.792969 223.808594 C 66.796875 223.820312 66.808594 223.828125 66.820312 223.828125 C 67.0625 224.777344 66.203125 225.269531 65.210938 225.558594 C 65.179688 225.566406 65.144531 225.574219 65.113281 225.585938 C 64.292969 225.8125 63.40625 225.914062 62.988281 226.027344 C 61.898438 226.324219 60.953125 227.054688 60.074219 227.742188 C 58.859375 228.6875 57.703125 229.699219 56.457031 230.597656 C 55.867188 231.027344 55.25 231.378906 54.542969 231.574219 C 53.582031 231.839844 52.890625 231.261719 52.109375 230.851562 C 51.929688 230.613281 51.832031 230.363281 51.863281 230.046875 C 51.867188 230.011719 51.84375 229.980469 51.8125 229.960938 C 51.808594 229.957031 51.792969 229.941406 51.78125 229.945312 C 51.765625 229.949219 51.75 229.949219 51.738281 229.953125 C 51.707031 229.957031 51.671875 229.992188 51.667969 230.023438 C 51.625 230.347656 51.691406 230.628906 51.84375 230.917969 C 51.875 230.972656 51.914062 231.042969 51.960938 231.113281 C 52.433594 232.082031 53.714844 232.53125 54.75 232.324219 C 55.824219 232.113281 56.796875 231.621094 57.707031 231.019531 C 57.675781 231.722656 57.839844 232.394531 58.121094 233.058594 C 58.152344 233.136719 58.230469 233.214844 58.316406 233.234375 C 58.332031 233.273438 58.347656 233.316406 58.367188 233.363281 C 58.554688 233.800781 58.828125 234.214844 59.082031 234.613281 C 59.511719 235.285156 60.625 235.75 61.367188 235.394531 C 62.214844 235.976562 63.40625 236.402344 63.910156 235.535156 C 64.246094 235.726562 64.609375 235.871094 64.984375 235.96875 C 65.625 236.132812 66.117188 235.933594 66.652344 235.671875 C 66.761719 235.765625 66.875 235.851562 66.984375 235.925781 C 69.035156 237.285156 71.492188 236.589844 73.589844 235.664062 C 75.804688 234.683594 77.789062 233.480469 79.699219 231.996094 C 80.09375 231.695312 80.523438 231.414062 80.96875 231.164062 C 82.355469 234.109375 88.558594 233.71875 90.308594 231.328125 C 90.367188 231.289062 90.421875 231.25 90.480469 231.214844 C 91.273438 230.683594 92.019531 230.089844 92.820312 229.570312 C 93.683594 229.015625 94.609375 228.773438 95.554688 228.40625 C 95.578125 228.398438 95.59375 228.390625 95.609375 228.378906 C 95.6875 228.363281 95.757812 228.316406 95.796875 228.242188 C 95.886719 228.324219 96.058594 228.261719 96.070312 228.121094 C 96.128906 227.34375 96.125 226.535156 96.105469 225.761719 C 96.101562 225.445312 96.101562 224.976562 95.992188 224.585938 C 96.027344 224.496094 96.050781 224.402344 96.0625 224.304688 C 96.0625 224.296875 96.0625 224.289062 96.0625 224.28125 C 96.769531 224.242188 97.460938 224.117188 98.15625 223.917969 C 99.003906 223.671875 100.097656 223.378906 100.773438 222.761719 C 101.171875 222.5625 101.539062 222.289062 101.867188 221.980469 C 101.980469 221.898438 102.089844 221.8125 102.179688 221.71875 C 102.195312 221.703125 102.191406 221.679688 102.175781 221.667969 C 102.253906 221.582031 102.324219 221.5 102.394531 221.414062 C 102.417969 221.390625 102.390625 221.34375 102.355469 221.367188 C 102.140625 221.507812 101.933594 221.664062 101.726562 221.820312 C 101.507812 221.917969 101.289062 222.023438 101.066406 222.109375 C 100.816406 222.207031 100.558594 222.273438 100.304688 222.347656 C 99.816406 222.363281 99.375 222.554688 98.835938 222.714844 C 97.738281 223.039062 96.675781 223.296875 95.519531 223.300781 C 93.84375 223.308594 92.445312 222.957031 90.949219 222.425781 C 91.125 222.175781 91.265625 221.914062 91.371094 221.640625 C 92.503906 222.425781 94.5 222.300781 95.65625 222.128906 C 96.894531 221.941406 98.089844 221.5 99.175781 220.871094 C 100.441406 220.136719 101.84375 219.453125 102.496094 218.070312 C 102.523438 218.011719 102.46875 217.945312 102.40625 217.980469 C 99.367188 219.753906 95.160156 221.753906 91.617188 220.304688 C 91.621094 220.042969 91.601562 219.777344 91.554688 219.515625 C 91.523438 219.457031 91.496094 219.394531 91.480469 219.320312 C 91.246094 218.378906 90.652344 217.582031 89.867188 217.089844 C 90.199219 216.828125 90.429688 216.277344 90.585938 215.6875 C 95.3125 217.757812 102.824219 215.480469 103.972656 209.996094 C 105.320312 208.523438 106.378906 206.703125 106.878906 204.847656 C 107.03125 204.636719 107.105469 204.390625 107.179688 204.128906 C 107.238281 203.921875 107.304688 203.695312 107.355469 203.46875 C 107.449219 203.207031 107.496094 202.925781 107.414062 202.664062 C 107.414062 202.652344 107.402344 202.648438 107.394531 202.644531 C 107.402344 202.578125 107.40625 202.511719 107.410156 202.445312 C 107.410156 202.429688 107.382812 202.421875 107.375 202.4375 C 107.367188 202.460938 107.355469 202.480469 107.347656 202.503906 C 107.332031 202.484375 107.300781 202.476562 107.285156 202.503906 C 107 202.96875 106.785156 203.472656 106.535156 203.957031 C 105.742188 204.957031 105.164062 206.128906 104.5 207.21875 C 103.636719 208.632812 102.5 209.84375 101.183594 210.847656 C 99.949219 211.785156 98.574219 212.445312 97.101562 212.910156 C 95.367188 213.457031 93.785156 213.074219 92.066406 213.289062 C 91.984375 213.296875 91.949219 213.394531 92.023438 213.445312 C 93.320312 214.269531 95.355469 214.089844 96.808594 213.894531 C 98.476562 213.667969 100.003906 212.984375 101.429688 212.117188 C 101.734375 211.933594 102.027344 211.726562 102.320312 211.507812 C 102.046875 211.855469 101.769531 212.199219 101.445312 212.515625 C 100.480469 213.464844 99.027344 214.089844 97.765625 214.511719 C 96.503906 214.933594 95.113281 215.195312 93.789062 215.261719 C 92.75 215.316406 91.777344 214.789062 90.773438 214.855469 C 90.855469 214.394531 90.898438 213.996094 90.929688 213.789062 C 91.089844 212.664062 91.097656 211.492188 90.941406 210.34375 C 93.710938 210.691406 97.082031 210.039062 99.195312 208.121094 C 101.664062 205.882812 102.878906 202.726562 103.390625 199.503906 C 103.40625 199.382812 103.261719 199.3125 103.191406 199.421875 C 101.632812 201.773438 101.082031 204.597656 99.164062 206.738281 C 97.167969 208.96875 93.753906 209.933594 90.839844 209.714844 C 90.722656 209.105469 90.5625 208.503906 90.351562 207.921875 C 90.972656 207.972656 91.613281 207.8125 92.222656 207.683594 C 93.425781 207.421875 94.554688 207.15625 95.679688 206.640625 C 97.609375 205.75 99.191406 204.40625 99.933594 202.429688 C 99.992188 202.277344 99.785156 202.203125 99.683594 202.285156 C 98.332031 203.386719 97.082031 204.667969 95.59375 205.59375 C 94.132812 206.507812 91.921875 207.359375 90.113281 207.328125 C 89.933594 206.917969 89.730469 206.515625 89.496094 206.132812 C 89.34375 205.878906 89.171875 205.65625 88.988281 205.460938 C 93.789062 205.195312 97.550781 200.957031 98.960938 196.625 C 101.128906 196.1875 103.316406 195.847656 105.515625 195.617188 C 108.152344 195.339844 111.324219 195.726562 113.816406 194.636719 C 114.875 194.175781 115.703125 193.433594 115.351562 192.199219 C 115.269531 191.914062 114.789062 191.875 114.730469 192.203125 C 114.367188 194.296875 109.867188 193.664062 108.296875 193.746094 C 103.972656 193.984375 99.679688 194.679688 95.476562 195.699219 C 91.332031 196.703125 87.472656 198.09375 83.738281 200.15625 C 80.046875 202.191406 76.773438 204.757812 73.230469 207.019531 C 71.597656 208.0625 70.160156 209.179688 68.699219 210.460938 C 67.050781 211.898438 65.105469 212.980469 63.269531 214.160156 C 61.839844 215.078125 60.390625 215.953125 58.878906 216.722656 C 57.023438 217.367188 54.8125 218.0625 52.398438 218.671875 C 52.09375 218.730469 51.785156 218.796875 51.480469 218.867188 C 51.101562 218.957031 50.726562 219.054688 50.351562 219.15625 C 44.804688 220.371094 38.464844 220.996094 32.929688 219.621094 C 32.734375 219.484375 32.539062 219.34375 32.34375 219.191406 C 30.605469 217.824219 28.9375 216.113281 28.8125 213.769531 C 28.800781 213.539062 28.476562 213.546875 28.457031 213.773438 C 28.152344 217.164062 31.492188 219.980469 34.152344 221.492188 Z M 84.527344 209.433594 C 84.378906 209.367188 84.226562 209.3125 84.078125 209.273438 C 84.230469 209.292969 84.382812 209.347656 84.535156 209.433594 C 84.53125 209.433594 84.527344 209.433594 84.527344 209.433594 Z M 59.699219 233.988281 C 59.34375 233.738281 59.128906 233.410156 58.9375 233.027344 C 58.910156 232.976562 58.882812 232.933594 58.859375 232.890625 C 59.097656 232.703125 59.339844 232.515625 59.574219 232.324219 C 59.726562 233.136719 60.0625 233.964844 60.457031 234.535156 C 60.179688 234.386719 59.957031 234.164062 59.699219 233.988281 Z M 95.660156 224.425781 C 95.648438 224.429688 95.636719 224.4375 95.632812 224.453125 C 95.632812 224.453125 95.632812 224.457031 95.632812 224.457031 C 95.625 224.460938 95.617188 224.464844 95.609375 224.472656 C 95.605469 224.410156 95.601562 224.351562 95.597656 224.289062 C 95.621094 224.335938 95.644531 224.378906 95.660156 224.425781 Z M 86.390625 213.640625 C 86.386719 213.664062 86.386719 213.6875 86.382812 213.710938 C 86.371094 213.699219 86.363281 213.683594 86.351562 213.667969 C 86.367188 213.660156 86.378906 213.648438 86.390625 213.640625 Z M 90.132812 218.96875 C 90.714844 220.042969 90.191406 221.273438 89.394531 222.128906 C 88.503906 223.085938 87.394531 223.144531 86.199219 222.949219 C 86.128906 222.9375 86.066406 222.921875 86.007812 222.90625 C 85.40625 222.464844 84.929688 221.84375 84.671875 221.101562 C 84.074219 219.398438 85.210938 218.09375 86.226562 216.921875 C 86.882812 216.863281 87.449219 216.90625 88.054688 217.097656 C 88.945312 217.539062 89.644531 218.074219 90.132812 218.96875 Z M 91.59375 198.5 C 92.382812 198.253906 93.179688 198.023438 93.976562 197.804688 C 93.597656 198.320312 92.921875 198.886719 92.617188 199.160156 C 91.734375 199.96875 90.628906 200.554688 89.558594 201.074219 C 88.511719 201.582031 87.339844 201.96875 86.203125 202.195312 C 85.097656 202.414062 83.960938 202.355469 82.84375 202.464844 C 85.613281 200.832031 88.550781 199.449219 91.59375 198.5 Z M 79.640625 204.515625 C 80.449219 203.957031 81.277344 203.417969 82.125 202.898438 C 82.132812 202.902344 82.136719 202.90625 82.144531 202.910156 C 84.890625 203.648438 88.050781 203.210938 90.609375 202.042969 C 91.835938 201.488281 92.941406 200.785156 93.972656 199.925781 C 94.640625 199.371094 95.785156 198.261719 95.886719 197.304688 C 96.398438 197.179688 96.90625 197.058594 97.421875 196.945312 C 96.160156 201.320312 92.289062 203.730469 88.015625 204.742188 C 86.753906 204.105469 85.160156 204.21875 83.738281 204.589844 C 82.960938 204.792969 82.082031 205.242188 81.300781 205.839844 C 81.230469 205.707031 81.097656 205.613281 80.898438 205.632812 C 80.117188 205.699219 79.371094 205.417969 78.617188 205.238281 C 78.957031 204.996094 79.296875 204.753906 79.640625 204.515625 Z M 77.921875 205.734375 C 78.640625 206.171875 79.613281 206.507812 80.480469 206.574219 C 80.023438 207.050781 79.644531 207.582031 79.417969 208.148438 C 79.378906 208.152344 79.347656 208.164062 79.316406 208.175781 C 78.390625 208.289062 77.546875 208.050781 76.683594 207.726562 C 76.367188 207.605469 76.015625 207.398438 75.671875 207.328125 C 76.429688 206.808594 77.175781 206.273438 77.921875 205.734375 Z M 66.5625 214.953125 C 66.636719 215.777344 66.375 216.546875 66.066406 217.292969 C 65.746094 218.070312 65.074219 218.714844 64.285156 219 C 63.347656 219.34375 62.648438 218.9375 61.925781 218.449219 C 63.699219 217.765625 65.171875 215.925781 66.402344 214.359375 C 66.476562 214.539062 66.542969 214.734375 66.5625 214.953125 Z M 63.621094 215.800781 C 64.003906 215.5625 64.390625 215.324219 64.78125 215.085938 C 63.28125 216.542969 61.757812 218.035156 59.714844 218.046875 C 61.054688 217.371094 62.34375 216.601562 63.621094 215.800781 Z M 63.621094 215.800781 " fill-opacity="1" fill-rule="nonzero"/></g></svg>