<svg width="146" height="127" viewBox="0 0 146 127" fill="none" xmlns="http://www.w3.org/2000/svg">
<path d="M0.30957 100.588H95.8297V126.923H0.30957V100.588Z" fill="#DCAAFF"/>
<path d="M83.4541 27.0345C82.4413 26.176 80.9846 25.8821 79.6517 26.3997C78.2536 26.9413 77.385 28.2186 77.3242 29.5924C79.0119 29.0881 80.7793 28.3502 82.617 27.3733C82.8829 27.2308 83.1657 27.1233 83.4541 27.0345Z" fill="#DCAAFF"/>
<path d="M113.045 11.2067C118.789 11.4293 123.261 16.1406 123.032 21.7312C122.803 27.3219 117.961 31.6725 112.217 31.4499C106.472 31.2274 102.001 26.5149 102.23 20.9254C102.459 15.3347 107.301 10.983 113.045 11.2067Z" fill="#DCAAFF"/>
<path d="M133.097 31.9886C129.729 30.7946 126.827 30.6674 125.562 30.6597C125.084 30.5961 124.651 30.5994 124.307 30.6805C118.648 31.9666 112.988 33.255 107.329 34.5411C106.078 34.6617 104.087 34.8086 101.77 34.8086C98.3523 34.8152 94.2301 34.4687 90.9351 33.3997C90.3312 33.2056 89.7578 32.9897 89.2193 32.7539C88.8486 33.8328 88.0904 34.7242 87.0585 35.2735C85.5669 36.0695 84.0911 36.7471 82.6309 37.315C85.4744 39.3423 88.7707 40.4562 92.0231 41.1251C95.4422 41.818 98.8514 42.0121 101.77 42.0154C102.975 42.0154 104.091 41.9803 105.09 41.9298C109.289 48.4788 111.411 53.7439 108.1 64.0458C107.229 63.9592 106.316 63.9022 105.36 63.9C103.698 63.9011 101.911 64.0601 100.06 64.5546C97.3093 65.2683 94.2957 66.902 92.2137 69.7208C90.1138 72.5266 89.1304 76.1415 89.1405 80.205C89.1484 84.0818 89.9719 88.5017 91.7035 93.8246C92.4853 96.2214 94.762 97.752 97.2146 97.752C97.7948 97.752 98.384 97.6665 98.9653 97.4866C102.009 96.5448 103.695 93.3805 102.729 90.4179C101.235 85.8556 100.703 82.4666 100.709 80.2035C100.709 78.606 100.961 77.5896 101.208 76.9964C101.615 76.1225 101.829 75.9942 102.403 75.6708C102.97 75.3835 104.049 75.15 105.36 75.1588C106.902 75.1522 108.679 75.4581 109.991 75.7881C110.649 75.9504 111.195 76.1149 111.552 76.23C111.732 76.2881 111.865 76.3341 111.944 76.3604C111.983 76.3747 112.008 76.3846 112.018 76.3879V76.3868C113.37 76.8944 114.796 76.8703 116.06 76.4262C116.068 80.5357 116.386 87.0417 117.958 94.4964C119.55 102.018 122.414 110.534 127.691 118.437C128.8 120.094 130.653 120.996 132.545 120.996C133.626 120.996 134.72 120.701 135.695 120.084C138.371 118.389 139.13 114.9 137.387 112.296C133.149 105.967 130.665 98.7736 129.289 92.2325C127.908 85.6956 127.627 79.8439 127.628 76.3036C127.628 75.1381 127.658 74.2248 127.687 73.6185C127.694 73.4727 127.7 73.3444 127.707 73.2347C128.06 72.7402 128.332 72.1602 128.485 71.5123C130.997 60.8198 133.179 50.0705 131.933 39.3402C132.206 39.475 132.475 39.6176 132.737 39.7766C134.161 40.6307 135.449 41.7918 136.457 43.5801C137.458 45.3706 138.205 47.8628 138.208 51.4974C138.209 54.0937 137.816 57.259 136.845 61.0682C136.352 63.0001 137.561 64.954 139.545 65.4331C139.845 65.5055 140.145 65.5395 140.441 65.5395C142.103 65.5395 143.613 64.443 144.031 62.8039C145.12 58.5321 145.611 54.7968 145.612 51.4976C145.616 46.8938 144.632 43.1144 142.958 40.1299C140.445 35.6235 136.483 33.1796 133.098 31.9889L133.097 31.9886ZM119.917 40.9562C121.755 46.0009 122.603 51.4993 122.275 57.145C120.871 58.6229 119.387 59.9627 117.847 61.1579C117.216 59.3554 116.456 57.658 115.588 56.0761C117.057 51.4875 117.604 46.5634 117.118 41.5869C117.61 41.6614 118.107 41.6527 118.583 41.5485H118.585C119.059 41.4465 119.512 41.247 119.918 40.9564L119.917 40.9562ZM117.191 36.7953C117.616 36.6462 118.042 36.496 118.465 36.3458C119.018 37.2054 119.541 38.0913 120.032 39.0002C120.015 39.0726 119.994 39.1416 119.976 39.214C119.579 39.8598 118.978 40.2688 118.314 40.4332C117.644 40.5977 116.92 40.5188 116.253 40.1997C116.207 40.1569 116.161 40.1109 116.115 40.0681C116.087 39.1329 116.021 38.19 115.915 37.2428C116.342 37.0937 116.766 36.9444 117.191 36.7953Z" fill="#DCAAFF"/>
<path d="M59.6752 34.2341C62.3666 36.348 66.6295 38.4991 72.2523 38.4991H72.294C75.1668 38.5013 78.3393 37.9487 81.782 36.6724C83.3389 36.0957 84.9521 35.371 86.6162 34.4829C87.5073 34.0081 88.1168 33.2297 88.385 32.3525C88.6576 31.4633 88.5799 30.4722 88.0864 29.5939C87.2922 28.1818 85.6688 27.4943 84.1286 27.7881C83.7647 27.8572 83.4053 27.9811 83.0629 28.1642C80.9775 29.2727 79.0996 30.0237 77.4087 30.5127C75.4653 31.0752 73.7687 31.2923 72.2941 31.2934C68.5854 31.2835 66.0639 29.9645 64.3009 28.6093C63.4312 27.9328 62.7845 27.2486 62.3767 26.7608C62.1728 26.5163 62.0286 26.3211 61.9441 26.2038C61.9024 26.1435 61.8765 26.104 61.8641 26.0864C61.8584 26.0777 61.8584 26.0777 61.8584 26.0777C61.6613 25.7619 61.4224 25.4856 61.1532 25.2521C60.9144 24.8782 60.6429 24.5624 60.3432 24.3409C59.9444 24.0504 59.5456 23.762 59.1467 23.4715C54.8861 20.3764 50.6264 17.281 46.3657 14.187C46.0773 13.9732 45.6729 13.7999 45.1963 13.6706C43.8906 13.118 40.6923 11.9448 36.5306 11.924C32.6867 11.8976 27.8706 13.0796 23.8384 16.8842C19.7984 20.6757 16.6903 26.7247 15.0815 35.9421C14.7379 37.9036 16.0943 39.7642 18.111 40.0977C18.3205 40.1328 18.53 40.1492 18.7362 40.1492C20.5072 40.1492 22.0742 38.9059 22.3808 37.1493C23.824 28.8856 26.4545 24.4241 28.9715 22.0768C31.2528 19.9662 33.56 19.2875 35.8145 19.156C30.4542 28.1805 28.0151 38.4662 25.968 48.8636C25.2064 50.5083 25.2695 52.4763 26.3094 54.1242L26.3082 54.1231C26.3082 54.1231 26.3161 54.1363 26.3364 54.167C26.6057 54.6143 28.6842 58.4267 28.6617 63.7288C28.6572 66.5356 28.1243 69.7809 26.4401 73.4377C24.7502 77.0899 21.8841 81.1871 17.0196 85.5565C14.6706 87.6638 14.5208 91.2249 16.6872 93.51C17.8273 94.7139 19.382 95.3235 20.9412 95.3235C22.3427 95.3235 23.7487 94.8301 24.8607 93.8323C30.7222 88.5771 34.6091 83.2146 36.9907 78.0514C39.378 72.8927 40.2342 67.9675 40.2295 63.7278C40.2262 62.5392 40.1586 61.4088 40.0459 60.3354C41.1759 60.9165 43.527 62.2728 45.7148 64.4118C47.2222 65.8733 48.654 67.6759 49.7017 69.8358C50.7483 72.0023 51.4435 74.5218 51.4491 77.6674C51.448 80.4162 50.9027 83.6715 49.4156 87.554C48.2991 90.4672 49.8211 93.7094 52.8156 94.7948C53.4814 95.0371 54.1641 95.1511 54.8356 95.1511C57.1811 95.1511 59.3881 93.7521 60.2556 91.4868C62.1629 86.5122 63.018 81.8899 63.0169 77.6664C63.0236 72.6832 61.8125 68.2941 59.9921 64.6825C57.2522 59.2454 53.2707 55.5614 50.0242 53.202C49.0992 52.5331 48.2329 51.9707 47.4533 51.5003C48.4706 41.6227 51.8774 37.34 57.3188 33.3841C57.5666 33.2032 57.819 33.0233 58.0747 32.8446C58.5434 33.2931 59.0717 33.7612 59.6756 34.2338L59.6752 34.2341Z" fill="#DCAAFF"/>
<path d="M64.6907 0.717498C70.0476 2.75027 72.6963 8.62382 70.6077 13.8361C68.519 19.0485 62.4838 21.6263 57.1281 19.5935C51.7713 17.5608 49.1225 11.6872 51.21 6.4749C53.2987 1.26259 59.3339 -1.31522 64.6907 0.717498Z" fill="#DCAAFF"/>
</svg>
