<svg width="125" height="106" viewBox="0 0 125 106" fill="none" xmlns="http://www.w3.org/2000/svg">
<path d="M52.2451 60.4469L48.0893 42.7532C47.8719 42.5965 47.6747 42.4158 47.4929 42.2206C36.8834 58.7281 32.3486 93.8782 32.3486 93.8782C32.3486 93.8782 39.1478 92.4728 46.9398 91.3538L52.1478 60.8947C52.1728 60.7525 52.2046 60.6044 52.245 60.4477L52.2451 60.4469Z" fill="#DCAAFF"/>
<path d="M75.9848 42.7503L71.8281 60.4469C71.8676 60.6007 71.8993 60.7468 71.9243 60.8891L77.1323 91.3506C84.9254 92.4695 91.7245 93.875 91.7245 93.875C91.7245 93.875 87.1898 58.7254 76.5802 42.2175C76.3994 42.4126 76.2031 42.5933 75.9847 42.751L75.9848 42.7503Z" fill="#DCAAFF"/>
<path d="M58.7861 90.0913C59.9232 90.0298 61.0141 89.9952 62.0356 89.9952C63.0571 89.9952 64.1471 90.0288 65.2851 90.0913L62.0356 71.0892L58.7861 90.0913Z" fill="#DCAAFF"/>
<path d="M93.1442 17.2106C91.9177 17.4471 90.7008 17.4221 89.5493 17.177C89.329 17.6692 89.0019 18.1219 88.5623 18.492C88.4382 18.5959 88.316 18.6997 88.1938 18.8025L96.5139 17.202C96.5293 17.1164 96.5428 17.0309 96.5505 16.9443C96.1676 16.8155 95.8222 16.629 95.5154 16.3993C94.7833 16.7694 93.9898 17.0472 93.1442 17.2106Z" fill="#DCAAFF"/>
<path d="M30.9253 17.2106C30.0798 17.0482 29.2862 16.7694 28.5531 16.3993C28.2463 16.629 27.9 16.8165 27.5171 16.9443C27.5248 17.0309 27.5383 17.1164 27.5536 17.201L35.8747 18.8016C35.7535 18.6997 35.6303 18.5949 35.5062 18.4911C35.0666 18.121 34.7395 17.6682 34.5193 17.176C33.3687 17.4221 32.1519 17.4462 30.9253 17.2106Z" fill="#DCAAFF"/>
<path d="M80.2695 28.9592C79.7914 29.0428 79.2507 29.138 78.6053 29.138C78.4398 29.138 78.2743 29.1303 78.1041 29.1178L72.0841 36.1179C71.9927 36.1102 71.9023 36.1016 71.81 36.1016H52.2617C52.1684 36.1016 52.078 36.1102 51.9866 36.1179L45.9667 29.1178C45.7973 29.1303 45.6319 29.138 45.4655 29.138C44.8209 29.138 44.2793 29.0428 43.8022 28.9592C42.4314 28.689 41.0596 28.2238 39.8332 27.7604L39.1357 31.3817L47.9446 41.6254C48.1793 41.8984 48.4506 42.1223 48.7431 42.2992L53.0084 60.4612C52.9555 60.6419 52.9103 60.8275 52.8775 61.0178L46.188 100.139C45.7234 102.856 47.5501 105.434 50.2686 105.897C50.5533 105.946 50.8371 105.97 51.1161 105.97C53.5037 105.97 55.6154 104.252 56.0318 101.82L61.7767 68.2254H62.2971L68.042 101.822C68.4575 104.253 70.5691 105.971 72.9576 105.971C73.2366 105.971 73.5194 105.948 73.8042 105.899C76.5227 105.435 78.3495 102.856 77.8848 100.141L71.1952 61.0193C71.1625 60.8289 71.1173 60.6453 71.0654 60.4646L75.3317 42.3007C75.6241 42.1228 75.8944 41.8998 76.1292 41.6268L84.9361 31.3831L84.2386 27.7619C83.0121 28.2252 81.6403 28.6905 80.2696 28.9606L80.2695 28.9592Z" fill="#DCAAFF"/>
<path d="M63.9225 18.0572C68.3976 19.0992 71.1806 23.5685 70.1387 28.0402C69.0959 32.5122 64.6236 35.2933 60.1487 34.2511C55.6736 33.21 52.8915 28.7409 53.9335 24.2691C54.9753 19.7971 59.4476 17.016 63.9225 18.0572Z" fill="#DCAAFF"/>
<mask id="mask0_47_619" style="mask-type:luminance" maskUnits="userSpaceOnUse" x="0" y="10" width="50" height="79">
<path d="M0 10.9033H49.477V88.1767H0V10.9033Z" fill="white"/>
</mask>
<g mask="url(#mask0_47_619)">
<path d="M39.2741 26.7492C39.3164 26.7656 39.3577 26.7829 39.401 26.8002C40.7343 27.3231 42.3505 27.9182 43.9291 28.2306C44.6496 28.3565 45.3442 28.4709 46.3032 28.3392C46.7813 28.2604 47.3768 28.1124 48.0252 27.6471C48.6764 27.202 49.2575 26.3186 49.3912 25.4938C49.5278 24.7622 49.4287 24.1547 49.2921 23.6711C49.0372 22.8223 48.6591 22.2205 48.1926 21.5592C46.8141 19.6721 44.3861 17.2939 40.0072 13.5833C38.8384 15.2117 37.157 16.4104 35.2435 16.9882C35.4186 17.3381 35.6648 17.6583 35.9832 17.9265C36.9558 18.7455 37.8254 19.4963 38.5988 20.1826C38.5555 20.1778 38.5142 20.1826 38.4709 20.1798C38.2285 20.0529 37.9639 19.9577 37.6821 19.9029L24.1905 17.3064C25.1159 16.9757 26.1375 16.6239 27.2697 16.2489C27.4708 16.1826 27.6584 16.0961 27.8344 15.9932C26.023 14.8579 24.6744 13.1152 24.0203 11.1031C20.5054 12.3009 18.0215 13.292 16.2428 14.1706C15.2356 14.6725 14.4506 15.1291 13.7619 15.6703C13.4175 15.9452 13.0914 16.2432 12.7778 16.6441C12.4709 17.043 12.1525 17.5698 12.0082 18.3004C11.8264 19.1156 12.0371 20.1519 12.4767 20.8066C13.1433 21.8093 13.8648 22.1323 14.4247 22.3909C15.0028 22.6331 15.529 22.7619 16.0639 22.8677C17.2182 23.084 18.4476 23.1666 19.5857 23.1993L15.5213 44.2883C15.5079 44.3595 15.4992 44.4297 15.4915 44.5008C15.4492 44.6623 15.4059 44.8267 15.3588 44.9997C14.7585 47.2184 13.7696 50.3916 12.242 54.0879C9.91601 59.723 6.34032 66.5656 1.02642 73.1371C-0.578143 75.1212 -0.268389 78.0302 1.71808 79.6335C2.07401 79.9199 2.45879 80.1458 2.86186 80.3121C4.70596 81.0725 6.90306 80.5717 8.22008 78.9423C14.2277 71.5085 18.1968 63.8863 20.7882 57.6128C22.1965 54.2012 23.197 51.1876 23.8906 48.8093L26.0455 49.2236C25.9762 51.3722 25.7068 55.4223 24.7227 60.5198C23.5703 66.5048 21.4356 73.9243 17.5436 81.4243C16.3691 83.6891 17.2531 86.4778 19.5205 87.6517C19.9264 87.8622 20.3497 88.0064 20.7768 88.0891C22.7354 88.4659 24.7892 87.5363 25.7531 85.6771C30.1521 77.1936 32.5177 68.9322 33.803 62.2675C35.4104 53.9195 35.3248 48.0691 35.3094 47.3318L39.2741 26.7492Z" fill="#DCAAFF"/>
</g>
<path d="M34.2134 0.151443C38.726 1.01949 41.6802 5.37995 40.8116 9.89036C39.942 14.3998 35.5785 17.3519 31.0659 16.4839C26.5524 15.6149 23.5982 11.2554 24.4677 6.74503C25.3364 2.23463 29.6999 -0.716529 34.2134 0.151443Z" fill="#DCAAFF"/>
<mask id="mask1_47_619" style="mask-type:luminance" maskUnits="userSpaceOnUse" x="74" y="10" width="51" height="79">
<path d="M74.5957 10.9033H124.07V88.1767H74.5957V10.9033Z" fill="white"/>
</mask>
<g mask="url(#mask1_47_619)">
<path d="M111.828 54.0878C110.302 50.3915 109.312 47.2183 108.712 44.9996C108.665 44.8265 108.621 44.6622 108.579 44.5007C108.57 44.4305 108.562 44.3594 108.549 44.2882L104.485 23.1992C105.622 23.1665 106.851 23.0839 108.006 22.8676C108.541 22.7618 109.068 22.633 109.646 22.3907C110.205 22.1322 110.927 21.8092 111.594 20.8065C112.033 20.1519 112.244 19.1146 112.062 18.3003C111.918 17.5697 111.599 17.0429 111.293 16.644C110.979 16.2441 110.654 15.9451 110.308 15.6702C109.621 15.129 108.836 14.6733 107.829 14.1705C106.05 13.2919 103.566 12.3008 100.051 11.103C99.3959 13.115 98.0473 14.8579 96.2369 15.9931C96.4129 16.095 96.6005 16.1825 96.8016 16.2488C97.9329 16.6237 98.9554 16.9756 99.8809 17.3063L86.3892 19.9028C86.1064 19.9576 85.8419 20.0518 85.6004 20.1796C85.5572 20.1825 85.5158 20.1777 85.4725 20.1825C86.2459 19.4961 87.1156 18.7444 88.0881 17.9263C88.4065 17.6581 88.6528 17.338 88.8278 16.9881C86.9154 16.4104 85.2329 15.2116 84.0641 13.5832C79.6862 17.2938 77.2571 19.672 75.8787 21.5591C75.4122 22.2204 75.0351 22.8222 74.7792 23.671C74.6426 24.1546 74.5435 24.7621 74.6801 25.4936C74.8148 26.3175 75.3949 27.2019 76.0461 27.647C76.6945 28.1113 77.2909 28.2603 77.7681 28.3391C78.7262 28.4708 79.4207 28.3564 80.1422 28.2305C81.7218 27.9181 83.337 27.3221 84.6703 26.8001C84.7136 26.7828 84.7549 26.7664 84.7973 26.7491L88.7634 47.3317C88.747 48.069 88.6623 53.9196 90.2698 62.2673C91.555 68.9311 93.9204 77.1924 98.3197 85.677C99.2846 87.5362 101.337 88.4667 103.296 88.0889C103.723 88.0062 104.146 87.8621 104.552 87.6515C106.819 86.4778 107.704 83.6889 106.529 81.4241C102.637 73.9239 100.502 66.5057 99.3501 60.5197C98.366 55.4209 98.0966 51.3709 98.0273 49.2235L100.182 48.8092C100.876 51.1884 101.876 54.2011 103.285 57.6127C105.876 63.8861 109.845 71.5084 115.853 78.9421C117.17 80.5725 119.368 81.0724 121.211 80.312C121.613 80.1457 121.999 79.9198 122.355 79.6333C124.34 78.0299 124.65 75.1209 123.046 73.1369C117.73 66.5665 114.156 59.7228 111.829 54.0878L111.828 54.0878Z" fill="#DCAAFF"/>
</g>
<path d="M99.6087 6.74673C100.477 11.2571 97.5241 15.6167 93.0105 16.4856C88.4969 17.3537 84.1344 14.4015 83.2648 9.89205C82.3962 5.38165 85.3504 1.0221 89.863 0.153138C94.3765 -0.714908 98.7401 2.23726 99.6087 6.74673Z" fill="#DCAAFF"/>
</svg>
