<svg width="98" height="120" viewBox="0 0 98 120" fill="none" xmlns="http://www.w3.org/2000/svg">
<path d="M66.2398 0.00012207C59.2679 0.00012207 53.6226 5.64276 53.6226 12.6086V31.5216C53.6226 38.4874 59.2679 44.1301 66.2398 44.1301C73.2104 44.1301 78.857 38.4874 78.857 31.5216V12.6086C78.857 5.64276 73.2104 0.00012207 66.2398 0.00012207ZM66.2398 6.30435C69.9927 6.30435 72.5484 8.85704 72.5484 12.6086V31.5216C72.5484 35.2719 69.9928 37.8258 66.2398 37.8258C62.4856 37.8258 59.9312 35.272 59.9312 31.5216V12.6086C59.9312 8.85704 62.4856 6.30435 66.2398 6.30435Z" fill="#DCAAFF"/>
<path d="M85.1644 3.15338C78.1937 3.15338 72.5483 8.79602 72.5483 15.7619V34.6749C72.5483 41.6407 78.1937 47.2833 85.1644 47.2833C92.1362 47.2833 97.7816 41.6407 97.7816 34.6749V15.7619C97.7816 8.79602 92.1362 3.15338 85.1644 3.15338ZM85.1644 9.45761C88.9185 9.45761 91.473 12.0103 91.473 15.7619V34.6749C91.473 38.4252 88.9185 40.9791 85.1644 40.9791C81.4114 40.9791 78.8569 38.4252 78.8569 34.6749V15.7619C78.8569 12.0103 81.4114 9.45761 85.1644 9.45761Z" fill="#DCAAFF"/>
<path d="M47.313 0.00012207C40.3412 0.00012207 34.6958 5.64276 34.6958 12.6086V31.5216C34.6958 38.4874 40.3412 44.1301 47.313 44.1301C54.2837 44.1301 59.9303 38.4874 59.9303 31.5216V12.6086C59.9303 5.64276 54.2837 0.00012207 47.313 0.00012207ZM47.313 6.30435C51.066 6.30435 53.6216 8.85704 53.6216 12.6086V31.5216C53.6216 35.2719 51.066 37.8258 47.313 37.8258C43.5589 37.8258 41.0044 35.272 41.0044 31.5216V12.6086C41.0044 8.85704 43.5589 6.30435 47.313 6.30435Z" fill="#DCAAFF"/>
<path d="M28.3887 8.70667e-05C21.418 8.70667e-05 15.7715 5.64272 15.7715 12.6086V21.4372V21.4818C15.7715 23.2122 17.1943 24.6339 18.9258 24.6339C20.6573 24.6339 22.0801 23.2121 22.0801 21.4818V21.4372V12.6086C22.0801 8.85701 24.6346 6.30432 28.3887 6.30432C32.0184 6.30432 34.6973 9.27345 34.6973 12.6086V31.2059C34.6973 34.3956 32.2708 37.1513 29.5202 37.542C27.9659 37.7567 26.792 39.0964 26.792 40.6659C26.792 42.3962 28.2183 43.8204 29.9499 43.8204C30.1037 43.8204 30.2586 43.8087 30.4101 43.7864C36.4921 42.916 41.006 37.4749 41.006 31.2058V12.6085C41.006 5.85617 35.4826 8.70667e-05 28.3887 8.70667e-05Z" fill="#DCAAFF"/>
<path d="M56.7766 42.5549C48.7857 42.5549 43.9187 43.3491 40.9663 44.1937C39.4942 44.6137 38.4905 45.0454 37.8318 45.4043C37.1721 45.7645 36.7342 46.1669 36.7342 46.1669C36.4372 46.4637 36.2705 46.8637 36.2705 47.2837C36.2705 48.1506 36.9831 48.8627 37.8506 48.8627C38.2697 48.8627 38.67 48.6949 38.967 48.3993C38.967 48.3993 38.9353 48.3993 39.3485 48.1787C39.7711 47.9582 40.5436 47.5922 41.8314 47.2238C44.3987 46.4918 48.9947 45.7105 56.7765 45.7105C64.5573 45.7105 69.1533 46.4918 71.7215 47.2238C73.0081 47.5922 73.7806 47.9488 74.2032 48.1787C74.6294 48.3993 74.5847 48.3993 74.5847 48.3993C74.8817 48.6949 75.282 48.8627 75.7023 48.8627C76.5687 48.8627 77.2824 48.1506 77.2824 47.2837C77.2824 46.8637 77.1146 46.4637 76.8187 46.1669C76.8187 46.1669 76.3797 45.7645 75.7211 45.4043C75.0614 45.0454 74.0588 44.6137 72.5854 44.1937C69.633 43.3491 64.766 42.5549 56.7766 42.5549Z" fill="#DCAAFF"/>
<path d="M24.3952 16.4514C22.6507 16.7036 20.7994 17.3781 18.4751 18.3178C16.1249 19.2633 13.472 20.4798 10.9362 21.788C8.39933 23.096 5.99976 24.4767 4.09113 25.8515C3.13555 26.539 2.30207 27.2135 1.58361 28.0007C0.864004 28.7855 0 29.6841 0 31.5225V54.0978L0.160828 54.5835C0.160828 54.5835 1.82898 59.5985 5.14413 65.3949C8.45928 71.1913 13.4215 78 20.6704 81.6249L21.336 81.9569H31.5434H31.5868C33.3195 81.9569 34.7411 80.535 34.7411 78.8047C34.7411 77.0732 33.3195 75.6526 31.5868 75.6526H31.5434H23.077C17.9107 72.8782 13.5377 67.3552 10.6262 62.2687C7.74072 57.2186 6.40958 53.2346 6.3086 52.9343V32.1939C6.57038 31.91 7.07518 31.4748 7.78186 30.968C9.26453 29.8993 11.4714 28.6065 13.8251 27.39C16.1777 26.177 18.6921 25.0227 20.8333 24.1592C22.9793 23.2958 24.922 22.728 25.3635 22.6623L25.4268 22.6588H25.4891C24.9878 22.7538 25.1744 22.5638 25.7732 23.0624C26.3789 23.5574 27.2183 24.5182 27.9661 25.7159C29.464 28.1149 30.5968 31.4817 30.5968 33.7389C30.5968 34.9495 28.499 38.1391 25.8179 40.5311C23.1331 42.9207 20.4201 44.616 20.4201 44.616C19.4928 45.1909 18.9281 46.2056 18.9281 47.2954C18.9281 49.0269 20.3509 50.4475 22.0824 50.4475C22.6694 50.4475 23.2469 50.2845 23.7459 49.9748C23.7459 49.9748 26.865 48.0427 30.0193 45.2343C33.1736 42.4223 36.9056 38.8361 36.9056 33.7391C36.9056 29.6941 35.363 25.6564 33.3158 22.3823C32.2909 20.7423 31.1358 19.2993 29.7612 18.1767C28.3912 17.0611 26.6126 16.0804 24.3986 16.4651L24.3952 16.4514Z" fill="#DCAAFF"/>
<path d="M94.5765 22.0223C92.8485 22.0504 91.448 23.491 91.4727 25.2191V75.6542H85.1641H85.1206C83.3891 75.6542 81.9663 77.0749 81.9663 78.8063C81.9663 80.5367 83.3891 81.9585 85.1206 81.9585H85.1641H94.627C96.3597 81.9585 97.7813 80.5366 97.7813 78.8063V25.2209V25.1764C97.7813 23.446 96.3596 22.0242 94.627 22.0242H94.5765V22.0223Z" fill="#DCAAFF"/>
<path d="M25.0831 75.6076C23.5887 75.6827 22.3455 76.8089 22.1213 78.287L15.8127 116.112C15.7728 116.316 15.7505 116.525 15.7505 116.732C15.7505 118.459 17.1756 119.885 18.9072 119.885C20.4814 119.885 21.8291 118.706 22.0333 117.145L28.3419 79.3205C28.3771 79.1352 28.3924 78.9451 28.3924 78.7562C28.3924 77.0259 26.9695 75.6041 25.238 75.6041C25.1876 75.6041 25.1336 75.6041 25.0831 75.6076Z" fill="#DCAAFF"/>
<path d="M88.3774 75.6077H88.314C86.5824 75.6077 85.1597 77.0295 85.1597 78.7598C85.1597 78.9487 85.1761 79.1352 85.2101 79.3205L91.5188 117.145C91.7242 118.706 93.0707 119.885 94.6448 119.885C96.3763 119.885 97.8027 118.459 97.8027 116.732C97.8027 116.525 97.7804 116.316 97.7393 116.112L91.4307 78.2871C91.2006 76.7773 89.9034 75.6393 88.3774 75.6077Z" fill="#DCAAFF"/>
<path d="M56.7492 64.5951C55.8945 64.6068 55.1972 65.3165 55.1972 66.1706V66.1964V72.1312L52.6451 77.2285H44.1577H44.1354C43.2714 77.2285 42.5576 77.9406 42.5576 78.8052C42.5576 79.6686 43.2714 80.3806 44.1354 80.3806H44.1577H53.6206C54.2158 80.3806 54.7652 80.0404 55.0305 79.5079L58.1848 73.2036C58.2951 72.9854 58.3515 72.7426 58.3515 72.501V66.1967V66.1709C58.3515 65.3075 57.6389 64.5954 56.7749 64.5954H56.7491L56.7492 64.5951Z" fill="#DCAAFF"/>
<path d="M56.7494 64.5951C55.8947 64.6068 55.1974 65.3165 55.1974 66.1705V66.1964V72.5006C55.1939 72.7422 55.2479 72.9851 55.3547 73.2033L58.509 79.5075C58.7779 80.0436 59.3296 80.3838 59.9295 80.3803H69.3924H69.4135C70.2787 80.3803 70.9913 79.6682 70.9913 78.8048C70.9913 77.9402 70.2787 77.2281 69.4135 77.2281H69.3924H60.9038L58.3517 72.1309V66.196V66.1702C58.3517 65.3068 57.6391 64.5947 56.7751 64.5947H56.7493L56.7494 64.5951Z" fill="#DCAAFF"/>
<path d="M63.0607 77.2024C62.2061 77.2141 61.5088 77.9238 61.5088 78.7779V78.8037V91.411V91.4332C61.5088 92.2978 62.2214 93.0099 63.0865 93.0099C63.9506 93.0099 64.6631 92.2978 64.6631 91.4332V91.411V78.8037V78.7779C64.6631 77.9145 63.9506 77.2024 63.0865 77.2024H63.0607Z" fill="#DCAAFF"/>
<path d="M50.4416 77.2024C49.587 77.2141 48.8896 77.9238 48.8896 78.7779V78.8037V91.411V91.4332C48.8896 92.2978 49.6022 93.0099 50.4674 93.0099C51.3314 93.0099 52.044 92.2978 52.044 91.4332V91.411V78.8037V78.7779C52.044 77.9145 51.3314 77.2024 50.4674 77.2024H50.4416Z" fill="#DCAAFF"/>
</svg>
